<svg width="101" height="24" viewBox="0 0 101 24" fill="none" xmlns="http://www.w3.org/2000/svg">
<path d="M13.0149 0L0.656738 8.35821L13.0149 16.8159L25.2737 8.39801L13.0149 0ZM12.995 12.6169L6.84579 8.39801L12.995 4.23881L19.0846 8.43781L12.995 12.6169Z" fill="white"/>
<path d="M4.43781 12.8955L0 15.9801L11.5622 24V19.1841L6.84577 16.1393L7.76119 15.3433L4.43781 12.8955Z" fill="white"/>
<path d="M21.3732 12.8955L25.811 15.9801L14.2488 24V19.1841L18.9652 16.1393L18.0498 15.3433L21.3732 12.8955Z" fill="white"/>
<path d="M34.825 8.3093C35.0482 8.16977 35.2855 8.05814 35.5227 7.96046C36.2622 7.65349 37.0157 7.5 37.825 7.5C38.6203 7.5 39.3878 7.65349 40.1273 7.96046C40.8668 8.26744 41.5087 8.7 42.0668 9.25814C42.625 9.81628 43.0575 10.4721 43.3645 11.1977C43.6715 11.9372 43.825 12.6907 43.825 13.5C43.825 14.2953 43.6715 15.0628 43.3645 15.8023C43.0575 16.5279 42.625 17.1837 42.0668 17.7419C41.5087 18.3 40.8529 18.7326 40.1273 19.0395C39.3878 19.3465 38.6343 19.5 37.825 19.5C37.0296 19.5 36.2622 19.3465 35.5227 19.0395C34.7831 18.7326 34.1413 18.3 33.5831 17.7419C33.011 17.1837 32.5785 16.5279 32.2715 15.7884C31.9645 15.0488 31.811 14.2953 31.811 13.486V4.5H34.811V8.3093H34.825ZM37.825 16.5C38.6482 16.5 39.3599 16.207 39.9459 15.6209C40.532 15.0349 40.825 14.3233 40.825 13.5C40.825 12.6767 40.532 11.9651 39.9459 11.3791C39.3599 10.793 38.6482 10.5 37.825 10.5C37.0017 10.5 36.2901 10.793 35.7041 11.3791C35.118 11.9651 34.825 12.6767 34.825 13.5C34.825 14.3233 35.118 15.0349 35.7041 15.6209C36.2901 16.207 36.9878 16.5 37.825 16.5Z" fill="white"/>
<path d="M50.0484 10.5001H43.6716V7.50006H55.6716L49.2949 16.5001H55.6716V19.5001H43.6716L50.0484 10.5001Z" fill="white"/>
<path d="M64.1134 15.0489L66.6808 16.5838C66.4297 17.0024 66.1366 17.3931 65.7738 17.7419C65.2157 18.3 64.5599 18.7326 63.8343 19.0396C63.0948 19.3465 62.3413 19.5 61.532 19.5C60.7366 19.5 59.9692 19.3465 59.2297 19.0396C58.4901 18.7326 57.8483 18.3 57.2901 17.7419C56.732 17.1838 56.2994 16.5279 55.9925 15.7884C55.6855 15.0489 55.532 14.2954 55.532 13.4861C55.532 12.6907 55.6855 11.9233 55.9925 11.1838C56.2994 10.4442 56.732 9.80236 57.2901 9.24422C57.8483 8.68608 58.5041 8.25353 59.2297 7.94655C59.9692 7.63957 60.7227 7.48608 61.532 7.48608C62.3273 7.48608 63.0948 7.63957 63.8343 7.94655C64.5738 8.25353 65.2157 8.68608 65.7738 9.24422C66.1227 9.59306 66.4297 9.98376 66.6808 10.4024L64.1134 11.9372C63.9878 11.7279 63.8343 11.5465 63.6529 11.3652C63.0669 10.7791 62.3552 10.4861 61.532 10.4861C60.7087 10.4861 59.9971 10.7791 59.4111 11.3652C58.825 11.9512 58.532 12.6628 58.532 13.4861C58.532 14.3093 58.825 15.021 59.4111 15.607C59.9971 16.1931 60.7087 16.4861 61.532 16.4861C62.3552 16.4861 63.0669 16.1931 63.6529 15.607C63.8343 15.4396 63.9878 15.2442 64.1134 15.0489Z" fill="white"/>
<path d="M72.7786 19.5C71.9832 19.5 71.2158 19.3465 70.4762 19.0396C69.7367 18.7326 69.0948 18.3 68.5367 17.7419C67.9786 17.1838 67.546 16.5279 67.239 15.7884C66.9321 15.0489 66.7786 14.2954 66.7786 13.4861C66.7786 12.6907 66.9321 11.9233 67.239 11.1838C67.546 10.4442 67.9786 9.80236 68.5367 9.24422C69.0948 8.68608 69.7507 8.25353 70.4762 7.94655C71.2158 7.63957 71.9693 7.48608 72.7786 7.48608C73.5739 7.48608 74.3414 7.63957 75.0809 7.94655C75.8204 8.25353 76.4623 8.68608 77.0204 9.24422C77.5786 9.80236 78.0111 10.4582 78.3181 11.1838C78.6251 11.9233 78.7786 12.6768 78.7786 13.4861C78.7786 14.2814 78.6251 15.0489 78.3181 15.7884C78.0111 16.5279 77.5786 17.1698 77.0204 17.7279C76.4623 18.2861 75.8065 18.7186 75.0809 19.0256C74.3414 19.3465 73.5739 19.5 72.7786 19.5ZM72.7786 16.5C73.6018 16.5 74.3134 16.207 74.8995 15.621C75.4855 15.0349 75.7786 14.3233 75.7786 13.5C75.7786 12.6768 75.4855 11.9652 74.8995 11.3791C74.3134 10.7931 73.6018 10.5 72.7786 10.5C71.9553 10.5 71.2437 10.7931 70.6576 11.3791C70.0716 11.9652 69.7786 12.6768 69.7786 13.5C69.7786 14.3233 70.0716 15.0349 70.6576 15.621C71.2437 16.207 71.9553 16.5 72.7786 16.5Z" fill="white"/>
<path d="M82.9365 13.5001V19.5001H79.9365V13.5001C79.9365 12.7047 80.09 11.9373 80.397 11.1977C80.704 10.4582 81.1365 9.81634 81.6947 9.2582C82.2528 8.70006 82.9086 8.2675 83.6342 7.96053C84.3737 7.65355 85.1272 7.50006 85.9365 7.50006C86.7319 7.50006 87.4993 7.65355 88.2388 7.96053C88.9784 8.2675 89.6202 8.70006 90.1784 9.2582C90.2621 9.34192 90.3458 9.4396 90.4295 9.52332C90.5133 9.42564 90.597 9.34192 90.6807 9.2582C91.2388 8.70006 91.8947 8.2675 92.6202 7.96053C93.3598 7.65355 94.1133 7.50006 94.9226 7.50006C95.7179 7.50006 96.4854 7.65355 97.2249 7.96053C97.9644 8.2675 98.6063 8.70006 99.1644 9.2582C99.7226 9.81634 100.155 10.4722 100.462 11.1977C100.769 11.9373 100.923 12.6908 100.923 13.5001V19.5001H97.9226V13.5001C97.9226 12.6768 97.6295 11.9652 97.0435 11.3791C96.4575 10.7931 95.7458 10.5001 94.9226 10.5001C94.0993 10.5001 93.3877 10.7931 92.8016 11.3791C92.2156 11.9652 91.9226 12.6768 91.9226 13.5001V19.5001H88.9226V13.5001C88.9226 12.6768 88.6295 11.9652 88.0435 11.3791C87.4574 10.7931 86.7458 10.5001 85.9226 10.5001C85.0993 10.5001 84.3877 10.7931 83.8016 11.3791C83.2295 11.9652 82.9365 12.6768 82.9365 13.5001Z" fill="white"/>
</svg>
