<svg width="737" height="623" viewBox="0 0 737 623" fill="none" xmlns="http://www.w3.org/2000/svg">
<g filter="url(#filter0_d_728_8627)">
<ellipse cx="381.352" cy="298.308" rx="277.344" ry="273.753" transform="rotate(-153.163 381.352 298.308)" fill="url(#paint0_linear_728_8627)" fill-opacity="0.2" shape-rendering="crispEdges"/>
</g>
<path fill-rule="evenodd" clip-rule="evenodd" d="M559.938 129.854C563.66 128.809 567.557 128.282 571.337 127.8C572.151 127.699 572.907 128.263 572.965 129.059C573.082 129.855 572.5 130.583 571.744 130.684C568.08 131.149 564.3 131.646 560.752 132.652C559.996 132.87 559.182 132.421 558.949 131.649C558.717 130.877 559.182 130.073 559.938 129.854Z" fill="#F5CD47"/>
<path fill-rule="evenodd" clip-rule="evenodd" d="M548.656 115.045C554.646 108.932 561.392 103.606 567.266 97.3295C567.79 96.7433 568.72 96.7119 569.302 97.2591C569.883 97.807 569.941 98.7282 569.36 99.3144C563.486 105.609 556.74 110.953 550.749 117.084C550.168 117.656 549.238 117.664 548.656 117.101C548.133 116.539 548.074 115.618 548.656 115.045Z" fill="#F5CD47"/>
<path fill-rule="evenodd" clip-rule="evenodd" d="M537.431 91.5329C537.257 95.0317 537.082 98.5304 536.908 102.03C536.908 102.831 536.21 103.45 535.396 103.411C534.581 103.371 534 102.689 534 101.887C534.175 98.3827 534.349 94.8787 534.523 91.3748C534.581 90.5733 535.279 89.9586 536.094 90.0022C536.85 90.0459 537.489 90.7321 537.431 91.5329Z" fill="#F5CD47"/>
<path d="M599.752 295.454C601.307 414.502 504.793 512.297 384.169 513.873C263.545 515.449 164.509 420.209 162.954 301.161C161.399 182.114 257.912 84.3186 378.536 82.7425C499.16 81.1664 598.196 176.406 599.752 295.454Z" fill="url(#paint1_linear_728_8627)" fill-opacity="0.2" stroke="url(#paint2_linear_728_8627)" stroke-width="0.924454"/>
<g filter="url(#filter1_d_728_8627)">
<rect x="221.432" y="123.28" width="320.721" height="350.368" rx="16.1708" fill="white"/>
<path d="M221.432 169.097H542.154V457.477C542.154 466.408 534.914 473.648 525.983 473.648H237.603C228.672 473.648 221.432 466.408 221.432 457.477V169.097Z" fill="#F1F5F9"/>
<circle cx="245.873" cy="145" r="5.39028" fill="#ED5E5E"/>
<circle cx="264.739" cy="145" r="5.39028" fill="#FFBB55"/>
<circle cx="283.605" cy="145" r="5.39028" fill="#2E9061"/>
<path d="M450.109 135L439.811 141.965L450.109 149.013L460.325 141.998L450.109 135ZM450.093 145.514L444.968 141.998L450.093 138.532L455.167 142.032L450.093 145.514Z" fill="#0C66E4"/>
<path d="M442.962 145.746L439.264 148.317L448.899 155V150.987L444.968 148.449L445.731 147.786L442.962 145.746Z" fill="#0C66E4"/>
<path d="M457.075 145.746L460.773 148.317L451.138 155V150.987L455.068 148.449L454.305 147.786L457.075 145.746Z" fill="#0C66E4"/>
<path d="M468.284 141.924C468.47 141.808 468.668 141.715 468.866 141.634C469.482 141.378 470.11 141.25 470.784 141.25C471.447 141.25 472.087 141.378 472.703 141.634C473.319 141.89 473.854 142.25 474.319 142.715C474.784 143.18 475.145 143.727 475.401 144.331C475.656 144.948 475.784 145.576 475.784 146.25C475.784 146.913 475.656 147.552 475.401 148.169C475.145 148.773 474.784 149.32 474.319 149.785C473.854 150.25 473.308 150.61 472.703 150.866C472.087 151.122 471.459 151.25 470.784 151.25C470.122 151.25 469.482 151.122 468.866 150.866C468.249 150.61 467.715 150.25 467.249 149.785C466.773 149.32 466.412 148.773 466.156 148.157C465.901 147.541 465.773 146.913 465.773 146.238V138.75H468.273V141.924H468.284ZM470.784 148.75C471.47 148.75 472.063 148.506 472.552 148.017C473.04 147.529 473.284 146.936 473.284 146.25C473.284 145.564 473.04 144.971 472.552 144.483C472.063 143.994 471.47 143.75 470.784 143.75C470.098 143.75 469.505 143.994 469.017 144.483C468.529 144.971 468.284 145.564 468.284 146.25C468.284 146.936 468.529 147.529 469.017 148.017C469.505 148.506 470.087 148.75 470.784 148.75Z" fill="#09326C"/>
<path d="M480.97 143.75H475.656V141.25H485.656L480.343 148.75H485.656V151.25H475.656L480.97 143.75Z" fill="#09326C"/>
<path d="M492.691 147.541L494.831 148.82C494.621 149.169 494.377 149.494 494.075 149.785C493.61 150.25 493.063 150.61 492.459 150.866C491.842 151.122 491.214 151.25 490.54 151.25C489.877 151.25 489.238 151.122 488.621 150.866C488.005 150.61 487.47 150.25 487.005 149.785C486.54 149.32 486.18 148.773 485.924 148.157C485.668 147.541 485.54 146.913 485.54 146.238C485.54 145.576 485.668 144.936 485.924 144.32C486.18 143.704 486.54 143.169 487.005 142.704C487.47 142.238 488.017 141.878 488.621 141.622C489.238 141.366 489.866 141.238 490.54 141.238C491.203 141.238 491.842 141.366 492.459 141.622C493.075 141.878 493.61 142.238 494.075 142.704C494.366 142.994 494.621 143.32 494.831 143.669L492.691 144.948C492.587 144.773 492.459 144.622 492.307 144.471C491.819 143.983 491.226 143.738 490.54 143.738C489.854 143.738 489.261 143.983 488.773 144.471C488.284 144.959 488.04 145.552 488.04 146.238C488.04 146.924 488.284 147.517 488.773 148.006C489.261 148.494 489.854 148.738 490.54 148.738C491.226 148.738 491.819 148.494 492.307 148.006C492.459 147.866 492.587 147.704 492.691 147.541Z" fill="#09326C"/>
<path d="M499.912 151.25C499.249 151.25 498.61 151.122 497.993 150.866C497.377 150.61 496.842 150.25 496.377 149.785C495.912 149.32 495.552 148.773 495.296 148.157C495.04 147.541 494.912 146.913 494.912 146.238C494.912 145.576 495.04 144.936 495.296 144.32C495.552 143.704 495.912 143.169 496.377 142.704C496.842 142.238 497.389 141.878 497.993 141.622C498.61 141.366 499.238 141.238 499.912 141.238C500.575 141.238 501.214 141.366 501.831 141.622C502.447 141.878 502.982 142.238 503.447 142.704C503.912 143.169 504.273 143.715 504.528 144.32C504.784 144.936 504.912 145.564 504.912 146.238C504.912 146.901 504.784 147.541 504.528 148.157C504.273 148.773 503.912 149.308 503.447 149.773C502.982 150.238 502.435 150.599 501.831 150.855C501.214 151.122 500.575 151.25 499.912 151.25ZM499.912 148.75C500.598 148.75 501.191 148.506 501.68 148.017C502.168 147.529 502.412 146.936 502.412 146.25C502.412 145.564 502.168 144.971 501.68 144.483C501.191 143.994 500.598 143.75 499.912 143.75C499.226 143.75 498.633 143.994 498.145 144.483C497.656 144.971 497.412 145.564 497.412 146.25C497.412 146.936 497.656 147.529 498.145 148.017C498.633 148.506 499.226 148.75 499.912 148.75Z" fill="#09326C"/>
<path d="M508.377 146.25V151.25H505.877V146.25C505.877 145.587 506.005 144.948 506.261 144.331C506.517 143.715 506.877 143.18 507.342 142.715C507.807 142.25 508.354 141.89 508.959 141.634C509.575 141.378 510.203 141.25 510.877 141.25C511.54 141.25 512.18 141.378 512.796 141.634C513.412 141.89 513.947 142.25 514.412 142.715C514.482 142.785 514.552 142.866 514.621 142.936C514.691 142.855 514.761 142.785 514.831 142.715C515.296 142.25 515.842 141.89 516.447 141.634C517.063 141.378 517.691 141.25 518.366 141.25C519.028 141.25 519.668 141.378 520.284 141.634C520.9 141.89 521.435 142.25 521.9 142.715C522.366 143.18 522.726 143.727 522.982 144.331C523.238 144.948 523.366 145.576 523.366 146.25V151.25H520.866V146.25C520.866 145.564 520.621 144.971 520.133 144.483C519.645 143.994 519.052 143.75 518.366 143.75C517.679 143.75 517.086 143.994 516.598 144.483C516.11 144.971 515.866 145.564 515.866 146.25V151.25H513.366V146.25C513.366 145.564 513.121 144.971 512.633 144.483C512.145 143.994 511.552 143.75 510.866 143.75C510.18 143.75 509.586 143.994 509.098 144.483C508.621 144.971 508.377 145.564 508.377 146.25Z" fill="#09326C"/>
<rect x="240.298" y="190.659" width="140.147" height="29.6465" rx="5.39028" fill="#E2E8EE"/>
<rect x="261.859" y="201.439" width="94.3299" height="8.08542" rx="4.04271" fill="#A3B1C2"/>
<rect x="415.483" y="201.439" width="94.3299" height="8.08542" rx="4.04271" fill="#CBD5E1"/>
<g filter="url(#filter2_d_728_8627)">
<rect x="240.298" y="239.171" width="282.99" height="61.9882" rx="10.7806" fill="white"/>
</g>
<g filter="url(#filter3_d_728_8627)">
<rect x="240.298" y="311.94" width="282.99" height="61.9882" rx="10.7806" fill="white"/>
</g>
<g filter="url(#filter4_d_728_8627)">
<rect x="240.298" y="384.709" width="282.99" height="61.9882" rx="10.7806" fill="white"/>
</g>
<rect x="292" y="277" width="174" height="8" rx="4" fill="#E2E8F0"/>
<rect x="292" y="350" width="174" height="8" rx="4" fill="#E2E8F0"/>
<rect x="291.506" y="422.441" width="78.159" height="8.08542" rx="4.04271" fill="#E2E8F0"/>
<circle cx="267.25" cy="271.513" r="16.1708" fill="#B6C6D9"/>
<circle cx="267.25" cy="344.282" r="16.1708" fill="#B6C6D9"/>
<rect x="247" y="250" width="40" height="40" rx="4" fill="white"/>
<path d="M275.689 278.652C278.038 276.317 279.356 273.155 279.351 269.86C279.349 269.657 279.265 269.463 279.119 269.32C278.973 269.177 278.776 269.097 278.57 269.097C278.365 269.097 278.167 269.177 278.021 269.32C277.875 269.463 277.792 269.657 277.789 269.86C277.792 272.748 276.637 275.519 274.578 277.564C273.578 278.58 272.383 279.388 271.063 279.939C269.742 280.49 268.324 280.774 266.891 280.774C265.458 280.774 264.04 280.49 262.719 279.939C261.399 279.388 260.204 278.58 259.204 277.564C257.147 275.517 255.993 272.747 255.993 269.86C255.993 266.973 257.147 264.203 259.204 262.156C260.198 261.148 261.384 260.345 262.694 259.794C264.004 259.243 265.411 258.955 266.835 258.947C267.138 258.956 267.427 259.082 267.638 259.299C267.849 259.516 267.966 259.805 267.964 260.106C267.962 260.407 267.842 260.695 267.628 260.91C267.415 261.124 267.125 261.247 266.821 261.253C266.793 261.253 266.765 261.255 266.737 261.258C264.572 261.327 262.517 262.221 261.003 263.755C259.404 265.348 258.507 267.502 258.507 269.747C258.507 271.993 259.404 274.147 261.003 275.74C261.784 276.532 262.718 277.161 263.748 277.591C264.779 278.02 265.886 278.242 267.004 278.242C268.122 278.242 269.229 278.02 270.26 277.591C271.29 277.161 272.223 276.532 273.005 275.74C274.606 274.148 275.504 271.993 275.501 269.747C275.504 269.394 275.436 269.043 275.302 268.715C275.167 268.387 274.969 268.089 274.717 267.838C274.465 267.586 274.166 267.387 273.836 267.251C273.506 267.114 273.152 267.044 272.794 267.044C272.437 267.044 272.083 267.114 271.753 267.251C271.423 267.387 271.124 267.586 270.872 267.838C270.62 268.089 270.422 268.387 270.287 268.715C270.153 269.043 270.085 269.394 270.088 269.747C270.088 269.77 270.09 269.791 270.092 269.813C270.09 269.834 270.088 269.856 270.088 269.878C270.093 270.495 269.913 271.099 269.571 271.615C269.228 272.13 268.739 272.533 268.164 272.772C267.59 273.012 266.957 273.077 266.345 272.96C265.733 272.843 265.17 272.548 264.727 272.114C264.285 271.679 263.983 271.125 263.859 270.52C263.736 269.916 263.797 269.288 264.034 268.718C264.271 268.148 264.674 267.66 265.192 267.317C265.71 266.974 266.319 266.79 266.943 266.79C267.046 266.792 267.148 266.772 267.244 266.734C267.34 266.696 267.427 266.639 267.501 266.567C267.574 266.495 267.633 266.41 267.673 266.315C267.713 266.221 267.733 266.12 267.733 266.017C267.733 265.915 267.713 265.814 267.673 265.719C267.633 265.625 267.574 265.539 267.501 265.468C267.427 265.396 267.34 265.339 267.244 265.301C267.148 265.262 267.046 265.243 266.943 265.244C266.018 265.25 265.115 265.526 264.348 266.038C263.582 266.55 262.986 267.276 262.635 268.123C262.285 268.97 262.196 269.901 262.379 270.798C262.563 271.695 263.011 272.518 263.667 273.164C264.323 273.809 265.157 274.248 266.065 274.425C266.972 274.601 267.912 274.508 268.766 274.157C269.62 273.805 270.35 273.211 270.864 272.45C271.377 271.688 271.651 270.793 271.651 269.878C271.651 269.856 271.649 269.834 271.647 269.813C271.649 269.791 271.651 269.769 271.651 269.747C271.648 269.597 271.675 269.447 271.731 269.307C271.787 269.167 271.871 269.039 271.978 268.932C272.084 268.824 272.211 268.739 272.352 268.68C272.492 268.622 272.643 268.592 272.795 268.592C272.947 268.592 273.098 268.622 273.238 268.68C273.378 268.739 273.506 268.824 273.612 268.932C273.719 269.039 273.803 269.167 273.859 269.307C273.915 269.447 273.942 269.597 273.939 269.747C273.941 271.586 273.206 273.35 271.894 274.653C271.258 275.299 270.498 275.813 269.658 276.164C268.818 276.515 267.916 276.696 267.004 276.696C266.093 276.696 265.19 276.515 264.35 276.164C263.51 275.813 262.75 275.299 262.114 274.653C260.804 273.349 260.069 271.586 260.069 269.747C260.069 267.909 260.804 266.145 262.114 264.842C262.75 264.196 263.511 263.683 264.351 263.332C265.19 262.981 266.092 262.8 267.004 262.799C267.074 262.799 267.143 262.789 267.211 262.77C267.876 262.67 268.48 262.329 268.907 261.815C269.334 261.3 269.554 260.648 269.524 259.983C269.495 259.318 269.219 258.687 268.748 258.211C268.278 257.735 267.647 257.448 266.976 257.405C266.948 257.402 266.919 257.4 266.891 257.4C266.875 257.4 266.86 257.4 266.844 257.4C266.836 257.4 266.829 257.4 266.821 257.4C266.814 257.4 266.806 257.401 266.798 257.401C265.175 257.414 263.57 257.744 262.076 258.374C260.582 259.003 259.228 259.919 258.094 261.069C255.748 263.406 254.431 266.566 254.431 269.86C254.431 273.154 255.748 276.314 258.094 278.651C259.239 279.812 260.607 280.735 262.118 281.365C263.629 281.995 265.252 282.32 266.891 282.32C268.531 282.32 274.178 282.95 275.689 282.32C277.199 281.69 274.543 279.813 275.689 278.652Z" fill="#0C66E4"/>
<path d="M293.004 269V258.818H296.902C297.638 258.818 298.249 258.934 298.737 259.166C299.227 259.395 299.593 259.708 299.835 260.106C300.08 260.504 300.203 260.954 300.203 261.458C300.203 261.872 300.124 262.227 299.964 262.522C299.805 262.814 299.592 263.051 299.323 263.233C299.055 263.415 298.755 263.546 298.423 263.626V263.725C298.785 263.745 299.131 263.856 299.462 264.058C299.797 264.257 300.071 264.539 300.283 264.903C300.495 265.268 300.601 265.709 300.601 266.226C300.601 266.753 300.473 267.227 300.218 267.648C299.963 268.065 299.578 268.395 299.065 268.637C298.551 268.879 297.905 269 297.126 269H293.004ZM294.849 267.459H296.832C297.502 267.459 297.984 267.331 298.279 267.076C298.577 266.817 298.727 266.486 298.727 266.082C298.727 265.78 298.652 265.508 298.503 265.266C298.354 265.021 298.142 264.829 297.866 264.69C297.591 264.547 297.263 264.476 296.882 264.476H294.849V267.459ZM294.849 263.148H296.673C296.991 263.148 297.278 263.09 297.533 262.974C297.789 262.855 297.989 262.688 298.135 262.472C298.284 262.254 298.359 261.995 298.359 261.697C298.359 261.302 298.219 260.978 297.941 260.722C297.666 260.467 297.257 260.339 296.713 260.339H294.849V263.148ZM302.026 269V267.857L305.964 262.92V262.855H302.156V261.364H308.166V262.592L304.418 267.444V267.509H308.296V269H302.026ZM309.141 260.364V258.818H317.264V260.364H314.117V269H312.288V260.364H309.141ZM319.909 269.154C319.425 269.154 318.99 269.068 318.602 268.896C318.217 268.72 317.912 268.461 317.687 268.12C317.465 267.779 317.354 267.358 317.354 266.857C317.354 266.426 317.433 266.07 317.593 265.788C317.752 265.507 317.969 265.281 318.244 265.112C318.519 264.943 318.829 264.816 319.173 264.729C319.521 264.64 319.881 264.575 320.252 264.536C320.7 264.489 321.063 264.448 321.341 264.411C321.619 264.371 321.822 264.312 321.948 264.232C322.077 264.149 322.142 264.022 322.142 263.849V263.82C322.142 263.445 322.03 263.155 321.808 262.95C321.586 262.744 321.267 262.641 320.849 262.641C320.408 262.641 320.058 262.737 319.8 262.93C319.545 263.122 319.372 263.349 319.283 263.611L317.602 263.372C317.735 262.908 317.954 262.52 318.259 262.209C318.564 261.894 318.936 261.659 319.377 261.503C319.818 261.344 320.305 261.264 320.839 261.264C321.207 261.264 321.573 261.307 321.938 261.393C322.302 261.48 322.635 261.622 322.937 261.821C323.239 262.017 323.481 262.283 323.663 262.621C323.848 262.96 323.941 263.382 323.941 263.889V269H322.211V267.951H322.151C322.042 268.163 321.888 268.362 321.689 268.548C321.494 268.73 321.247 268.877 320.948 268.99C320.653 269.099 320.307 269.154 319.909 269.154ZM320.377 267.832C320.738 267.832 321.051 267.76 321.316 267.618C321.581 267.472 321.785 267.28 321.928 267.041C322.074 266.803 322.146 266.542 322.146 266.261V265.361C322.09 265.407 321.994 265.45 321.858 265.49C321.726 265.53 321.576 265.565 321.411 265.594C321.245 265.624 321.081 265.651 320.919 265.674C320.756 265.697 320.615 265.717 320.496 265.734C320.227 265.77 319.987 265.83 319.775 265.913C319.563 265.996 319.396 266.112 319.273 266.261C319.15 266.406 319.089 266.595 319.089 266.827C319.089 267.159 319.21 267.409 319.452 267.578C319.694 267.747 320.002 267.832 320.377 267.832ZM327.551 258.818V269H325.751V258.818H327.551ZM331.042 266.604L331.037 264.431H331.325L334.07 261.364H336.173L332.797 265.122H332.424L331.042 266.604ZM329.401 269V258.818H331.201V269H329.401ZM334.194 269L331.708 265.525L332.921 264.257L336.347 269H334.194Z" fill="#172B4D"/>
<path d="M293.004 341V330.818H296.902C297.638 330.818 298.249 330.934 298.737 331.166C299.227 331.395 299.593 331.708 299.835 332.106C300.08 332.504 300.203 332.954 300.203 333.458C300.203 333.872 300.124 334.227 299.964 334.522C299.805 334.814 299.592 335.051 299.323 335.233C299.055 335.415 298.755 335.546 298.423 335.626V335.725C298.785 335.745 299.131 335.856 299.462 336.058C299.797 336.257 300.071 336.539 300.283 336.903C300.495 337.268 300.601 337.709 300.601 338.226C300.601 338.753 300.473 339.227 300.218 339.648C299.963 340.065 299.578 340.395 299.065 340.637C298.551 340.879 297.905 341 297.126 341H293.004ZM294.849 339.459H296.832C297.502 339.459 297.984 339.331 298.279 339.076C298.577 338.817 298.727 338.486 298.727 338.082C298.727 337.78 298.652 337.508 298.503 337.266C298.354 337.021 298.142 336.829 297.866 336.69C297.591 336.547 297.263 336.476 296.882 336.476H294.849V339.459ZM294.849 335.148H296.673C296.991 335.148 297.278 335.09 297.533 334.974C297.789 334.855 297.989 334.688 298.135 334.472C298.284 334.254 298.359 333.995 298.359 333.697C298.359 333.302 298.219 332.978 297.941 332.722C297.666 332.467 297.257 332.339 296.713 332.339H294.849V335.148ZM302.026 341V339.857L305.964 334.92V334.855H302.156V333.364H308.166V334.592L304.418 339.444V339.509H308.296V341H302.026ZM313.86 337.58H315.531L316.52 338.862L317.226 339.697L318.921 341.875H317.131L315.978 340.413L315.486 339.717L313.86 337.58ZM319.165 335.909C319.165 337.006 318.959 337.946 318.548 338.728C318.141 339.507 317.584 340.103 316.878 340.518C316.175 340.932 315.378 341.139 314.487 341.139C313.595 341.139 312.796 340.932 312.09 340.518C311.388 340.1 310.831 339.502 310.42 338.723C310.012 337.941 309.808 337.003 309.808 335.909C309.808 334.812 310.012 333.874 310.42 333.095C310.831 332.313 311.388 331.715 312.09 331.3C312.796 330.886 313.595 330.679 314.487 330.679C315.378 330.679 316.175 330.886 316.878 331.3C317.584 331.715 318.141 332.313 318.548 333.095C318.959 333.874 319.165 334.812 319.165 335.909ZM317.31 335.909C317.31 335.137 317.189 334.486 316.947 333.955C316.709 333.422 316.377 333.019 315.953 332.747C315.529 332.472 315.04 332.335 314.487 332.335C313.933 332.335 313.444 332.472 313.02 332.747C312.596 333.019 312.263 333.422 312.021 333.955C311.782 334.486 311.663 335.137 311.663 335.909C311.663 336.681 311.782 337.334 312.021 337.868C312.263 338.398 312.596 338.801 313.02 339.076C313.444 339.348 313.933 339.484 314.487 339.484C315.04 339.484 315.529 339.348 315.953 339.076C316.377 338.801 316.709 338.398 316.947 337.868C317.189 337.334 317.31 336.681 317.31 335.909Z" fill="#172B4D"/>
<path d="M293.004 413V402.818H296.902C297.638 402.818 298.249 402.934 298.737 403.166C299.227 403.395 299.593 403.708 299.835 404.106C300.08 404.504 300.203 404.954 300.203 405.458C300.203 405.872 300.124 406.227 299.964 406.522C299.805 406.814 299.592 407.051 299.323 407.233C299.055 407.415 298.755 407.546 298.423 407.626V407.725C298.785 407.745 299.131 407.856 299.462 408.058C299.797 408.257 300.071 408.539 300.283 408.903C300.495 409.268 300.601 409.709 300.601 410.226C300.601 410.753 300.473 411.227 300.218 411.648C299.963 412.065 299.578 412.395 299.065 412.637C298.551 412.879 297.905 413 297.126 413H293.004ZM294.849 411.459H296.832C297.502 411.459 297.984 411.331 298.279 411.076C298.577 410.817 298.727 410.486 298.727 410.082C298.727 409.78 298.652 409.508 298.503 409.266C298.354 409.021 298.142 408.829 297.866 408.69C297.591 408.547 297.263 408.476 296.882 408.476H294.849V411.459ZM294.849 407.148H296.673C296.991 407.148 297.278 407.09 297.533 406.974C297.789 406.855 297.989 406.688 298.135 406.472C298.284 406.254 298.359 405.995 298.359 405.697C298.359 405.302 298.219 404.978 297.941 404.722C297.666 404.467 297.257 404.339 296.713 404.339H294.849V407.148ZM302.026 413V411.857L305.964 406.92V406.855H302.156V405.364H308.166V406.592L304.418 411.444V411.509H308.296V413H302.026ZM312.21 413L309.336 402.818H311.32L313.154 410.3H313.249L315.207 402.818H317.012L318.976 410.305H319.065L320.9 402.818H322.884L320.01 413H318.19L316.152 405.856H316.072L314.029 413H312.21ZM325.501 413.154C325.017 413.154 324.581 413.068 324.194 412.896C323.809 412.72 323.504 412.461 323.279 412.12C323.057 411.779 322.946 411.358 322.946 410.857C322.946 410.426 323.025 410.07 323.184 409.788C323.343 409.507 323.56 409.281 323.836 409.112C324.111 408.943 324.421 408.816 324.765 408.729C325.113 408.64 325.473 408.575 325.844 408.536C326.292 408.489 326.654 408.448 326.933 408.411C327.211 408.371 327.413 408.312 327.539 408.232C327.669 408.149 327.733 408.022 327.733 407.849V407.82C327.733 407.445 327.622 407.155 327.4 406.95C327.178 406.744 326.858 406.641 326.441 406.641C326 406.641 325.65 406.737 325.392 406.93C325.136 407.122 324.964 407.349 324.875 407.611L323.194 407.372C323.327 406.908 323.546 406.52 323.85 406.209C324.155 405.894 324.528 405.659 324.969 405.503C325.41 405.344 325.897 405.264 326.431 405.264C326.799 405.264 327.165 405.307 327.529 405.393C327.894 405.48 328.227 405.622 328.529 405.821C328.83 406.017 329.072 406.283 329.255 406.621C329.44 406.96 329.533 407.382 329.533 407.889V413H327.803V411.951H327.743C327.634 412.163 327.48 412.362 327.281 412.548C327.085 412.73 326.838 412.877 326.54 412.99C326.245 413.099 325.899 413.154 325.501 413.154ZM325.968 411.832C326.33 411.832 326.643 411.76 326.908 411.618C327.173 411.472 327.377 411.28 327.52 411.041C327.665 410.803 327.738 410.542 327.738 410.261V409.361C327.682 409.407 327.586 409.45 327.45 409.49C327.317 409.53 327.168 409.565 327.002 409.594C326.837 409.624 326.673 409.651 326.51 409.674C326.348 409.697 326.207 409.717 326.088 409.734C325.819 409.77 325.579 409.83 325.367 409.913C325.155 409.996 324.987 410.112 324.865 410.261C324.742 410.406 324.681 410.595 324.681 410.827C324.681 411.159 324.802 411.409 325.044 411.578C325.286 411.747 325.594 411.832 325.968 411.832ZM331.343 413V405.364H333.088V406.636H333.167C333.306 406.196 333.545 405.856 333.883 405.617C334.225 405.375 334.614 405.254 335.051 405.254C335.151 405.254 335.262 405.259 335.385 405.269C335.511 405.276 335.615 405.287 335.698 405.304V406.96C335.622 406.933 335.501 406.91 335.335 406.89C335.172 406.867 335.015 406.855 334.863 406.855C334.534 406.855 334.239 406.926 333.978 407.069C333.719 407.208 333.515 407.402 333.366 407.651C333.217 407.899 333.142 408.186 333.142 408.511V413H331.343ZM339.96 413.149C339.194 413.149 338.533 412.99 337.976 412.672C337.423 412.35 336.997 411.896 336.698 411.31C336.4 410.72 336.251 410.025 336.251 409.227C336.251 408.441 336.4 407.752 336.698 407.158C337 406.562 337.421 406.098 337.961 405.766C338.501 405.432 339.136 405.264 339.865 405.264C340.336 405.264 340.78 405.34 341.198 405.493C341.619 405.642 341.99 405.874 342.311 406.189C342.636 406.504 342.891 406.905 343.077 407.392C343.262 407.876 343.355 408.453 343.355 409.122V409.674H337.096V408.461H341.63C341.627 408.116 341.552 407.81 341.406 407.541C341.261 407.269 341.057 407.056 340.795 406.9C340.536 406.744 340.235 406.666 339.89 406.666C339.522 406.666 339.199 406.756 338.921 406.935C338.642 407.11 338.425 407.342 338.269 407.631C338.117 407.916 338.039 408.229 338.036 408.57V409.629C338.036 410.073 338.117 410.455 338.279 410.773C338.442 411.088 338.669 411.33 338.96 411.499C339.252 411.664 339.593 411.747 339.985 411.747C340.246 411.747 340.483 411.711 340.695 411.638C340.908 411.562 341.092 411.451 341.247 411.305C341.403 411.159 341.521 410.978 341.6 410.763L343.281 410.952C343.175 411.396 342.972 411.784 342.674 412.115C342.379 412.443 342.001 412.698 341.541 412.881C341.08 413.06 340.553 413.149 339.96 413.149Z" fill="#172B4D"/>
<rect x="247" y="325" width="40" height="40" rx="4" fill="white"/>
<path d="M274.894 345.766C274.507 349.786 271.122 352.929 267 352.929C262.878 352.929 259.493 349.786 259.106 345.766H253.023C253.422 353.141 259.527 359 267 359C274.473 359 280.578 353.141 280.977 345.766H274.894Z" fill="#0C66E4"/>
<path d="M274.894 345.766C274.507 349.786 271.122 352.929 267 352.929C262.878 352.929 259.493 349.786 259.106 345.766H259.1C259.493 351.465 264.238 355.965 270.035 355.965C275.833 355.965 280.578 351.465 280.971 345.766H274.894Z" fill="#0C66E4"/>
<path d="M259.106 344.231C259.493 340.211 262.878 337.068 267 337.068C271.122 337.068 274.507 340.211 274.894 344.231H280.977C280.581 336.859 274.476 331 267 331C259.527 331 253.422 336.859 253.023 344.231H259.106Z" fill="#0C66E4"/>
<path d="M259.106 344.231C259.493 340.211 262.878 337.068 267 337.068C271.122 337.068 274.507 340.211 274.894 344.231H274.903C274.51 338.535 269.765 334.035 263.968 334.035C258.17 334.035 253.425 338.535 253.032 344.231H259.106Z" fill="#0C66E4"/>
<rect x="247" y="396" width="40" height="40" rx="4" fill="white"/>
<mask id="path-41-inside-1_728_8627" fill="white">
<path d="M258.535 416.72L262.185 419.328L260.621 419.849L266.357 423.499L266.357 428.714L253.841 419.849L258.535 416.72Z"/>
</mask>
<path d="M258.535 416.72L261.21 412.974L258.625 411.127L255.981 412.89L258.535 416.72ZM266.357 423.499L270.96 423.499L270.96 420.972L268.828 419.615L266.357 423.499ZM266.357 428.714L263.696 432.47L270.96 437.616L270.96 428.714L266.357 428.714ZM253.841 419.849L251.288 416.019L245.715 419.734L251.181 423.606L253.841 419.849ZM262.185 419.328L263.641 423.695L272.216 420.836L264.861 415.582L262.185 419.328ZM260.621 419.849L259.165 415.482L249.989 418.541L258.149 423.733L260.621 419.849ZM261.754 423.499L261.754 428.714L270.96 428.714L270.96 423.499L261.754 423.499ZM269.018 424.957L256.502 416.093L251.181 423.606L263.696 432.47L269.018 424.957ZM256.395 423.679L261.088 420.55L255.981 412.89L251.288 416.019L256.395 423.679ZM255.859 420.466L259.509 423.073L264.861 415.582L261.21 412.974L255.859 420.466ZM260.729 414.96L259.165 415.482L262.076 424.216L263.641 423.695L260.729 414.96ZM258.149 423.733L263.886 427.383L268.828 419.615L263.092 415.965L258.149 423.733Z" fill="#0C66E4" mask="url(#path-41-inside-1_728_8627)"/>
<mask id="path-43-inside-2_728_8627" fill="white">
<path d="M276.064 417.195L272.414 419.802L273.978 420.324L268.242 423.974L268.242 429.189L280.757 420.324L276.064 417.195Z"/>
</mask>
<path d="M276.064 417.195L273.388 413.449L275.974 411.602L278.618 413.365L276.064 417.195ZM268.242 423.974L263.638 423.974L263.638 421.447L265.77 420.09L268.242 423.974ZM268.242 429.189L270.902 432.945L263.638 438.09L263.638 429.189L268.242 429.189ZM280.757 420.324L283.311 416.494L288.884 420.209L283.418 424.081L280.757 420.324ZM272.414 419.802L270.958 424.17L262.382 421.311L269.738 416.057L272.414 419.802ZM273.978 420.324L275.434 415.957L284.61 419.015L276.449 424.208L273.978 420.324ZM272.845 423.974L272.845 429.189L263.638 429.189L263.638 423.974L272.845 423.974ZM265.581 425.432L278.097 416.567L283.418 424.081L270.902 432.945L265.581 425.432ZM278.204 424.154L273.51 421.025L278.618 413.365L283.311 416.494L278.204 424.154ZM278.74 420.941L275.09 423.548L269.738 416.057L273.388 413.449L278.74 420.941ZM273.869 415.435L275.434 415.957L272.522 424.691L270.958 424.17L273.869 415.435ZM276.449 424.208L270.713 427.858L265.77 420.09L271.507 416.44L276.449 424.208Z" fill="#0C66E4" mask="url(#path-43-inside-2_728_8627)"/>
<path d="M258.393 411.946L267.304 405.476L276.362 411.945L267.303 417.881L258.393 411.946Z" stroke="#0C66E4" stroke-width="4.60342"/>
</g>
<g filter="url(#filter5_d_728_8627)">
<rect x="580" y="19" width="60" height="60" rx="9.41177" fill="white" fill-opacity="0.1" shape-rendering="crispEdges"/>
<rect x="580.294" y="19.2941" width="59.4118" height="59.4118" rx="9.11765" stroke="url(#paint3_linear_728_8627)" stroke-width="0.588235" shape-rendering="crispEdges"/>
<rect x="586.5" y="25.5" width="47.0588" height="47.0588" rx="4.70588" fill="white"/>
<path d="M619.316 49.9303C618.861 54.6604 614.878 58.3579 610.029 58.3579C605.18 58.3579 601.197 54.6604 600.742 49.9303H593.586C594.055 58.607 601.237 65.5 610.029 65.5C618.821 65.5 626.003 58.607 626.473 49.9303H619.316Z" fill="#0C66E4"/>
<path d="M619.316 49.9303C618.861 54.6604 614.878 58.3579 610.029 58.3579C605.18 58.3579 601.197 54.6604 600.742 49.9303H600.735C601.197 56.6355 606.779 61.9289 613.6 61.9289C620.421 61.9289 626.003 56.6355 626.465 49.9303H619.316Z" fill="#0C66E4"/>
<path d="M600.742 48.1249C601.197 43.3948 605.18 39.6974 610.029 39.6974C614.878 39.6974 618.861 43.3948 619.316 48.1249H626.473C626.007 39.4518 618.825 32.5588 610.029 32.5588C601.237 32.5588 594.055 39.4518 593.586 48.1249H600.742Z" fill="#0C66E4"/>
<path d="M600.742 48.1249C601.197 43.3948 605.18 39.6973 610.029 39.6973C614.878 39.6973 618.861 43.3948 619.316 48.1249H619.327C618.865 41.4233 613.282 36.1299 606.462 36.1299C599.641 36.1299 594.059 41.4233 593.596 48.1249H600.742Z" fill="#0C66E4"/>
</g>
<g filter="url(#filter6_d_728_8627)">
<rect x="640.5" y="461.5" width="60" height="60" rx="9.41177" fill="white" fill-opacity="0.1" shape-rendering="crispEdges"/>
<rect x="640.794" y="461.794" width="59.4118" height="59.4118" rx="9.11765" stroke="url(#paint4_linear_728_8627)" stroke-width="0.588235" shape-rendering="crispEdges"/>
<rect x="647" y="468" width="47.0588" height="47.0588" rx="4.70588" fill="white"/>
<path d="M680.751 501.708C683.516 498.962 685.065 495.242 685.06 491.365C685.057 491.126 684.959 490.898 684.787 490.729C684.615 490.561 684.383 490.467 684.141 490.467C683.899 490.467 683.667 490.561 683.495 490.729C683.323 490.898 683.225 491.126 683.222 491.365C683.226 494.762 681.867 498.022 679.444 500.429C678.268 501.624 676.862 502.574 675.309 503.222C673.756 503.871 672.087 504.205 670.401 504.205C668.715 504.205 667.047 503.871 665.493 503.222C663.94 502.574 662.534 501.624 661.358 500.429C658.938 498.02 657.58 494.761 657.58 491.365C657.58 487.968 658.938 484.71 661.358 482.301C662.527 481.115 663.923 480.17 665.464 479.522C667.005 478.874 668.66 478.535 670.335 478.525C670.692 478.536 671.031 478.685 671.279 478.94C671.528 479.195 671.665 479.536 671.663 479.89C671.661 480.244 671.519 480.583 671.268 480.835C671.017 481.087 670.676 481.232 670.319 481.239C670.286 481.239 670.253 481.241 670.22 481.244C667.672 481.325 665.255 482.378 663.474 484.182C661.593 486.056 660.537 488.59 660.537 491.232C660.537 493.874 661.593 496.408 663.474 498.282C664.393 499.214 665.491 499.954 666.704 500.46C667.916 500.965 669.218 501.225 670.534 501.225C671.849 501.225 673.152 500.965 674.364 500.46C675.577 499.954 676.675 499.214 677.594 498.282C679.478 496.41 680.534 493.874 680.53 491.232C680.534 490.816 680.455 490.403 680.296 490.017C680.138 489.632 679.904 489.281 679.608 488.985C679.312 488.69 678.96 488.455 678.572 488.295C678.183 488.135 677.767 488.052 677.346 488.052C676.926 488.052 676.509 488.135 676.121 488.295C675.733 488.455 675.381 488.69 675.085 488.985C674.789 489.281 674.555 489.632 674.396 490.017C674.238 490.403 674.159 490.816 674.163 491.232C674.163 491.259 674.164 491.284 674.166 491.309C674.164 491.334 674.163 491.36 674.163 491.386C674.169 492.112 673.957 492.823 673.554 493.429C673.151 494.035 672.575 494.509 671.899 494.791C671.223 495.073 670.478 495.149 669.758 495.012C669.039 494.874 668.376 494.527 667.856 494.016C667.335 493.505 666.98 492.853 666.834 492.141C666.689 491.43 666.761 490.692 667.04 490.021C667.319 489.35 667.793 488.776 668.403 488.373C669.012 487.969 669.729 487.753 670.462 487.753C670.583 487.755 670.704 487.732 670.817 487.687C670.93 487.642 671.032 487.576 671.119 487.491C671.205 487.406 671.274 487.306 671.321 487.195C671.368 487.084 671.392 486.964 671.392 486.844C671.392 486.724 671.368 486.605 671.321 486.493C671.274 486.382 671.205 486.282 671.119 486.197C671.032 486.113 670.93 486.046 670.817 486.001C670.704 485.956 670.583 485.933 670.462 485.935C669.374 485.941 668.312 486.265 667.41 486.868C666.508 487.471 665.807 488.324 665.394 489.321C664.982 490.317 664.877 491.413 665.093 492.468C665.309 493.524 665.836 494.492 666.608 495.251C667.38 496.011 668.361 496.527 669.429 496.735C670.497 496.943 671.603 496.833 672.607 496.42C673.612 496.006 674.471 495.307 675.075 494.412C675.679 493.516 676.001 492.463 676.001 491.386C676.001 491.359 675.999 491.334 675.997 491.309C675.999 491.284 676.001 491.258 676.001 491.232C675.997 491.055 676.029 490.879 676.095 490.714C676.161 490.549 676.26 490.399 676.385 490.273C676.511 490.146 676.66 490.046 676.825 489.977C676.99 489.908 677.168 489.873 677.347 489.873C677.526 489.873 677.703 489.908 677.868 489.977C678.033 490.046 678.183 490.146 678.308 490.273C678.434 490.399 678.532 490.549 678.598 490.714C678.664 490.879 678.697 491.055 678.693 491.232C678.695 493.395 677.83 495.471 676.287 497.003C675.539 497.764 674.645 498.368 673.656 498.781C672.668 499.194 671.607 499.407 670.534 499.407C669.462 499.407 668.4 499.194 667.412 498.781C666.424 498.368 665.529 497.764 664.781 497.003C663.24 495.47 662.375 493.395 662.375 491.232C662.375 489.069 663.24 486.994 664.781 485.461C665.53 484.701 666.424 484.097 667.412 483.685C668.4 483.272 669.461 483.059 670.534 483.058C670.616 483.057 670.698 483.046 670.778 483.024C671.56 482.905 672.27 482.505 672.772 481.9C673.275 481.295 673.534 480.527 673.499 479.745C673.465 478.962 673.14 478.22 672.586 477.66C672.033 477.1 671.29 476.762 670.501 476.711C670.468 476.708 670.434 476.706 670.401 476.706C670.383 476.706 670.364 476.706 670.346 476.706C670.337 476.706 670.328 476.706 670.319 476.706C670.31 476.706 670.301 476.707 670.292 476.707C668.382 476.722 666.494 477.111 664.736 477.852C662.978 478.592 661.386 479.67 660.051 481.022C657.291 483.771 655.742 487.489 655.742 491.365C655.742 495.24 657.291 498.958 660.051 501.707C661.399 503.073 663.008 504.159 664.786 504.9C666.563 505.642 668.473 506.023 670.401 506.023C672.33 506.023 678.973 506.765 680.751 506.023C682.529 505.282 679.404 503.074 680.751 501.708Z" fill="#0C66E4"/>
</g>
<g filter="url(#filter7_d_728_8627)">
<rect x="36" y="378" width="60" height="60" rx="9.41177" fill="white" fill-opacity="0.1" shape-rendering="crispEdges"/>
<rect x="36.2941" y="378.294" width="59.4118" height="59.4118" rx="9.11765" stroke="url(#paint5_linear_728_8627)" stroke-width="0.588235" shape-rendering="crispEdges"/>
<rect x="42.5" y="384.5" width="47.0588" height="47.0588" rx="4.70588" fill="white"/>
<mask id="path-60-inside-3_728_8627" fill="white">
<path d="M56.0701 408.876L60.3648 411.944L58.5242 412.558L65.273 416.852L65.273 422.987L50.5486 412.558L56.0701 408.876Z"/>
</mask>
<path d="M56.0701 408.876L59.2182 404.469L56.1762 402.296L53.0658 404.37L56.0701 408.876ZM65.273 416.852L70.6888 416.852L70.6888 413.879L68.1803 412.283L65.273 416.852ZM65.273 422.987L62.1427 427.406L70.6888 433.46L70.6888 422.987L65.273 422.987ZM50.5486 412.558L47.5443 408.052L40.9882 412.423L47.4183 416.977L50.5486 412.558ZM60.3648 411.944L62.0774 417.082L72.1664 413.719L63.5128 407.537L60.3648 411.944ZM58.5242 412.558L56.8116 407.42L46.0162 411.018L55.6169 417.127L58.5242 412.558ZM59.8572 416.852L59.8572 422.987L70.6888 422.987L70.6888 416.852L59.8572 416.852ZM68.4033 418.567L53.6789 408.138L47.4183 416.977L62.1427 427.406L68.4033 418.567ZM53.553 417.064L59.0745 413.382L53.0658 404.37L47.5443 408.052L53.553 417.064ZM52.9221 413.283L57.2167 416.351L63.5128 407.537L59.2182 404.469L52.9221 413.283ZM58.6521 406.806L56.8116 407.42L60.2369 417.696L62.0774 417.082L58.6521 406.806ZM55.6169 417.127L62.3657 421.421L68.1803 412.283L61.4315 407.988L55.6169 417.127Z" fill="#0C66E4" mask="url(#path-60-inside-3_728_8627)"/>
<mask id="path-62-inside-4_728_8627" fill="white">
<path d="M76.693 409.435L72.3984 412.503L74.239 413.116L67.4902 417.41L67.4902 423.546L82.2146 413.116L76.693 409.435Z"/>
</mask>
<path d="M76.693 409.435L73.545 405.028L76.5869 402.855L79.6974 404.929L76.693 409.435ZM67.4902 417.41L62.0744 417.41L62.0744 414.437L64.5829 412.841L67.4902 417.41ZM67.4902 423.546L70.6205 427.965L62.0744 434.018L62.0744 423.546L67.4902 423.546ZM82.2146 413.116L85.2189 408.61L91.775 412.981L85.3449 417.536L82.2146 413.116ZM72.3984 412.503L70.6858 417.641L60.5968 414.278L69.2503 408.096L72.3984 412.503ZM74.239 413.116L75.9516 407.979L86.747 411.577L77.1463 417.686L74.239 413.116ZM72.906 417.41L72.906 423.546L62.0744 423.546L62.0744 417.41L72.906 417.41ZM64.3599 419.126L79.0843 408.697L85.3449 417.536L70.6205 427.965L64.3599 419.126ZM79.2102 417.622L73.6887 413.941L79.6974 404.929L85.2189 408.61L79.2102 417.622ZM79.8411 413.842L75.5465 416.91L69.2503 408.096L73.545 405.028L79.8411 413.842ZM74.1111 407.365L75.9516 407.979L72.5263 418.254L70.6858 417.641L74.1111 407.365ZM77.1463 417.686L70.3975 421.98L64.5829 412.841L71.3316 408.547L77.1463 417.686Z" fill="#0C66E4" mask="url(#path-62-inside-4_728_8627)"/>
<path d="M55.9034 403.259L66.387 395.649L77.0439 403.259L66.3862 410.243L55.9034 403.259Z" stroke="#0C66E4" stroke-width="5.41579"/>
</g>
<defs>
<filter id="filter0_d_728_8627" x="74.7189" y="13.7752" width="613.267" height="609.007" filterUnits="userSpaceOnUse" color-interpolation-filters="sRGB">
<feFlood flood-opacity="0" result="BackgroundImageFix"/>
<feColorMatrix in="SourceAlpha" type="matrix" values="0 0 0 0 0 0 0 0 0 0 0 0 0 0 0 0 0 0 127 0" result="hardAlpha"/>
<feMorphology radius="9.98564" operator="erode" in="SourceAlpha" result="effect1_dropShadow_728_8627"/>
<feOffset dy="19.9713"/>
<feGaussianBlur stdDeviation="19.9713"/>
<feComposite in2="hardAlpha" operator="out"/>
<feColorMatrix type="matrix" values="0 0 0 0 0.141176 0 0 0 0 0.141176 0 0 0 0 0.141176 0 0 0 0.18 0"/>
<feBlend mode="normal" in2="BackgroundImageFix" result="effect1_dropShadow_728_8627"/>
<feBlend mode="normal" in="SourceGraphic" in2="effect1_dropShadow_728_8627" result="shape"/>
</filter>
<filter id="filter1_d_728_8627" x="191.475" y="113.295" width="380.635" height="410.282" filterUnits="userSpaceOnUse" color-interpolation-filters="sRGB">
<feFlood flood-opacity="0" result="BackgroundImageFix"/>
<feColorMatrix in="SourceAlpha" type="matrix" values="0 0 0 0 0 0 0 0 0 0 0 0 0 0 0 0 0 0 127 0" result="hardAlpha"/>
<feMorphology radius="9.98564" operator="erode" in="SourceAlpha" result="effect1_dropShadow_728_8627"/>
<feOffset dy="19.9713"/>
<feGaussianBlur stdDeviation="19.9713"/>
<feComposite in2="hardAlpha" operator="out"/>
<feColorMatrix type="matrix" values="0 0 0 0 0.141176 0 0 0 0 0.141176 0 0 0 0 0.141176 0 0 0 0.18 0"/>
<feBlend mode="normal" in2="BackgroundImageFix" result="effect1_dropShadow_728_8627"/>
<feBlend mode="normal" in="SourceGraphic" in2="effect1_dropShadow_728_8627" result="shape"/>
</filter>
<filter id="filter2_d_728_8627" x="197.176" y="201.439" width="369.234" height="148.233" filterUnits="userSpaceOnUse" color-interpolation-filters="sRGB">
<feFlood flood-opacity="0" result="BackgroundImageFix"/>
<feColorMatrix in="SourceAlpha" type="matrix" values="0 0 0 0 0 0 0 0 0 0 0 0 0 0 0 0 0 0 127 0" result="hardAlpha"/>
<feOffset dy="5.39028"/>
<feGaussianBlur stdDeviation="21.5611"/>
<feComposite in2="hardAlpha" operator="out"/>
<feColorMatrix type="matrix" values="0 0 0 0 0 0 0 0 0 0 0 0 0 0 0 0 0 0 0.12 0"/>
<feBlend mode="normal" in2="BackgroundImageFix" result="effect1_dropShadow_728_8627"/>
<feBlend mode="normal" in="SourceGraphic" in2="effect1_dropShadow_728_8627" result="shape"/>
</filter>
<filter id="filter3_d_728_8627" x="197.176" y="274.208" width="369.234" height="148.233" filterUnits="userSpaceOnUse" color-interpolation-filters="sRGB">
<feFlood flood-opacity="0" result="BackgroundImageFix"/>
<feColorMatrix in="SourceAlpha" type="matrix" values="0 0 0 0 0 0 0 0 0 0 0 0 0 0 0 0 0 0 127 0" result="hardAlpha"/>
<feOffset dy="5.39028"/>
<feGaussianBlur stdDeviation="21.5611"/>
<feComposite in2="hardAlpha" operator="out"/>
<feColorMatrix type="matrix" values="0 0 0 0 0 0 0 0 0 0 0 0 0 0 0 0 0 0 0.12 0"/>
<feBlend mode="normal" in2="BackgroundImageFix" result="effect1_dropShadow_728_8627"/>
<feBlend mode="normal" in="SourceGraphic" in2="effect1_dropShadow_728_8627" result="shape"/>
</filter>
<filter id="filter4_d_728_8627" x="197.176" y="346.977" width="369.234" height="148.233" filterUnits="userSpaceOnUse" color-interpolation-filters="sRGB">
<feFlood flood-opacity="0" result="BackgroundImageFix"/>
<feColorMatrix in="SourceAlpha" type="matrix" values="0 0 0 0 0 0 0 0 0 0 0 0 0 0 0 0 0 0 127 0" result="hardAlpha"/>
<feOffset dy="5.39028"/>
<feGaussianBlur stdDeviation="21.5611"/>
<feComposite in2="hardAlpha" operator="out"/>
<feColorMatrix type="matrix" values="0 0 0 0 0 0 0 0 0 0 0 0 0 0 0 0 0 0 0.12 0"/>
<feBlend mode="normal" in2="BackgroundImageFix" result="effect1_dropShadow_728_8627"/>
<feBlend mode="normal" in="SourceGraphic" in2="effect1_dropShadow_728_8627" result="shape"/>
</filter>
<filter id="filter5_d_728_8627" x="544" y="7" width="132" height="132" filterUnits="userSpaceOnUse" color-interpolation-filters="sRGB">
<feFlood flood-opacity="0" result="BackgroundImageFix"/>
<feColorMatrix in="SourceAlpha" type="matrix" values="0 0 0 0 0 0 0 0 0 0 0 0 0 0 0 0 0 0 127 0" result="hardAlpha"/>
<feMorphology radius="12" operator="erode" in="SourceAlpha" result="effect1_dropShadow_728_8627"/>
<feOffset dy="24"/>
<feGaussianBlur stdDeviation="24"/>
<feComposite in2="hardAlpha" operator="out"/>
<feColorMatrix type="matrix" values="0 0 0 0 0.141176 0 0 0 0 0.141176 0 0 0 0 0.141176 0 0 0 0.18 0"/>
<feBlend mode="normal" in2="BackgroundImageFix" result="effect1_dropShadow_728_8627"/>
<feBlend mode="normal" in="SourceGraphic" in2="effect1_dropShadow_728_8627" result="shape"/>
</filter>
<filter id="filter6_d_728_8627" x="604.5" y="449.5" width="132" height="132" filterUnits="userSpaceOnUse" color-interpolation-filters="sRGB">
<feFlood flood-opacity="0" result="BackgroundImageFix"/>
<feColorMatrix in="SourceAlpha" type="matrix" values="0 0 0 0 0 0 0 0 0 0 0 0 0 0 0 0 0 0 127 0" result="hardAlpha"/>
<feMorphology radius="12" operator="erode" in="SourceAlpha" result="effect1_dropShadow_728_8627"/>
<feOffset dy="24"/>
<feGaussianBlur stdDeviation="24"/>
<feComposite in2="hardAlpha" operator="out"/>
<feColorMatrix type="matrix" values="0 0 0 0 0.141176 0 0 0 0 0.141176 0 0 0 0 0.141176 0 0 0 0.18 0"/>
<feBlend mode="normal" in2="BackgroundImageFix" result="effect1_dropShadow_728_8627"/>
<feBlend mode="normal" in="SourceGraphic" in2="effect1_dropShadow_728_8627" result="shape"/>
</filter>
<filter id="filter7_d_728_8627" x="0" y="366" width="132" height="132" filterUnits="userSpaceOnUse" color-interpolation-filters="sRGB">
<feFlood flood-opacity="0" result="BackgroundImageFix"/>
<feColorMatrix in="SourceAlpha" type="matrix" values="0 0 0 0 0 0 0 0 0 0 0 0 0 0 0 0 0 0 127 0" result="hardAlpha"/>
<feMorphology radius="12" operator="erode" in="SourceAlpha" result="effect1_dropShadow_728_8627"/>
<feOffset dy="24"/>
<feGaussianBlur stdDeviation="24"/>
<feComposite in2="hardAlpha" operator="out"/>
<feColorMatrix type="matrix" values="0 0 0 0 0.141176 0 0 0 0 0.141176 0 0 0 0 0.141176 0 0 0 0.18 0"/>
<feBlend mode="normal" in2="BackgroundImageFix" result="effect1_dropShadow_728_8627"/>
<feBlend mode="normal" in="SourceGraphic" in2="effect1_dropShadow_728_8627" result="shape"/>
</filter>
<linearGradient id="paint0_linear_728_8627" x1="381.352" y1="24.5545" x2="381.352" y2="572.061" gradientUnits="userSpaceOnUse">
<stop stop-color="#F7FAFC" stop-opacity="0.6"/>
<stop offset="1" stop-color="#EDF2F7" stop-opacity="0"/>
</linearGradient>
<linearGradient id="paint1_linear_728_8627" x1="378.53" y1="82.2803" x2="384.175" y2="514.335" gradientUnits="userSpaceOnUse">
<stop stop-color="#F7FAFC"/>
<stop offset="1" stop-color="#EDF2F7" stop-opacity="0"/>
</linearGradient>
<linearGradient id="paint2_linear_728_8627" x1="384.175" y1="514.335" x2="378.53" y2="82.2803" gradientUnits="userSpaceOnUse">
<stop stop-color="white" stop-opacity="0"/>
<stop offset="1" stop-color="white" stop-opacity="0.2"/>
</linearGradient>
<linearGradient id="paint3_linear_728_8627" x1="601.765" y1="85.4706" x2="614.118" y2="3.11765" gradientUnits="userSpaceOnUse">
<stop stop-color="white" stop-opacity="0"/>
<stop offset="1" stop-color="white" stop-opacity="0.2"/>
</linearGradient>
<linearGradient id="paint4_linear_728_8627" x1="662.265" y1="527.971" x2="674.618" y2="445.618" gradientUnits="userSpaceOnUse">
<stop stop-color="white" stop-opacity="0"/>
<stop offset="1" stop-color="white" stop-opacity="0.2"/>
</linearGradient>
<linearGradient id="paint5_linear_728_8627" x1="57.7647" y1="444.471" x2="70.1176" y2="362.118" gradientUnits="userSpaceOnUse">
<stop stop-color="white" stop-opacity="0"/>
<stop offset="1" stop-color="white" stop-opacity="0.2"/>
</linearGradient>
</defs>
</svg>
