<svg width="828" height="598" viewBox="0 0 828 598" fill="none" xmlns="http://www.w3.org/2000/svg">
<rect x="122.966" y="88.0323" width="593.908" height="434.448" rx="16.2715" fill="white"/>
<rect x="141" y="164" width="320" height="162" rx="6.50859" fill="#F0F6FC"/>
<rect x="477" y="164" width="221" height="162" rx="6.50859" fill="#F0F6FC"/>
<rect x="140.801" y="340.535" width="243.116" height="153.003" rx="6.50859" fill="#F0F6FC"/>
<rect x="399.874" y="340.535" width="298.497" height="153.003" rx="6.50859" fill="#F0F6FC"/>
<rect x="140.865" y="118.948" width="557.298" height="30.9158" rx="6.50859" fill="#EDF1F5"/>
<ellipse cx="146.154" cy="103.897" rx="5.28941" ry="5.28823" fill="#F15B50"/>
<ellipse cx="164.638" cy="103.897" rx="5.28941" ry="5.28823" fill="#F5CD47"/>
<ellipse cx="183.122" cy="103.897" rx="5.28941" ry="5.28823" fill="#22A06B"/>
<g filter="url(#filter0_d_747_6811)">
<rect x="37" y="299" width="282.245" height="249.988" rx="20.1603" fill="white"/>
<path opacity="0.83" d="M224.269 368.862C213.26 357.64 197.975 350.628 181.019 350.466C164.063 350.304 148.641 357.035 137.428 368.035C126.216 379.035 119.195 394.329 119.033 411.285C118.871 428.241 125.602 443.663 136.602 454.875C147.602 466.088 162.896 473.109 179.852 473.271C196.807 473.433 212.229 466.702 223.442 455.702C234.664 444.693 241.676 429.408 241.838 412.452C242 395.497 235.268 380.083 224.269 368.862Z" fill="url(#paint0_radial_747_6811)" fill-opacity="0.5"/>
<path d="M111.927 403.574C111.757 421.313 118.795 437.451 130.314 449.192C141.834 460.933 157.827 468.278 175.566 468.448L176.18 404.196L111.927 403.574Z" fill="#FFBB38"/>
<path d="M137.199 403.812C137.096 414.582 141.365 424.372 148.36 431.495C155.347 438.618 165.052 443.075 175.822 443.177L176.196 404.187L137.199 403.812Z" fill="#FFB11F"/>
<path d="M126.71 353.764C113.801 366.425 105.733 384.011 105.545 403.514L176.188 404.187L176.861 333.545C157.349 333.357 139.618 341.102 126.71 353.764Z" fill="#4C78FF"/>
<path d="M148.88 376.351C141.757 383.338 137.301 393.043 137.199 403.813L176.188 404.187L176.563 365.198C165.793 365.096 156.003 369.365 148.88 376.351Z" fill="#3464F3"/>
<path d="M234.008 347.459C219.489 332.659 199.33 323.405 176.955 323.192L176.18 404.187L257.175 404.963C257.396 382.588 248.527 362.25 234.008 347.459Z" fill="#16DBCC"/>
<path d="M204.016 376.879C197.029 369.756 187.324 365.3 176.555 365.198L176.18 404.187L215.169 404.562C215.28 393.792 211.011 384.002 204.016 376.879Z" fill="#1EC6B8"/>
<path d="M176.188 404.187L175.634 461.956C191.585 462.109 206.086 455.778 216.643 445.426C227.2 435.074 233.803 420.691 233.948 404.741L176.188 404.187Z" fill="#FF82AC"/>
<path opacity="0.08" d="M176.128 410.467L176.188 404.187L111.935 403.574C111.918 405.695 112.004 407.791 112.183 409.853L176.128 410.467Z" fill="url(#paint1_linear_747_6811)"/>
<path d="M176.188 404.187L175.813 443.177C186.583 443.279 196.373 439.01 203.496 432.024C210.619 425.037 215.075 415.332 215.178 404.562L176.188 404.187Z" fill="#FF6195"/>
<path opacity="0.83" d="M202.039 390.64C197.029 385.536 190.076 382.341 182.357 382.264C174.637 382.188 167.625 385.255 162.521 390.257C157.418 395.267 154.222 402.219 154.146 409.939C154.069 417.658 157.136 424.671 162.138 429.774C167.148 434.878 174.101 438.073 181.82 438.15C189.54 438.227 196.552 435.159 201.656 430.158C206.759 425.148 209.954 418.195 210.031 410.476C210.108 402.756 207.049 395.744 202.039 390.64Z" fill="url(#paint2_radial_747_6811)" fill-opacity="0.5"/>
<path d="M196.134 384.616C191.124 379.512 184.172 376.317 176.452 376.24C168.733 376.164 161.72 379.231 156.616 384.233C151.513 389.243 148.318 396.195 148.241 403.915C148.164 411.634 151.232 418.647 156.233 423.75C161.243 428.854 168.196 432.049 175.915 432.126C183.635 432.203 190.647 429.135 195.751 424.134C200.854 419.124 204.05 412.171 204.126 404.452C204.203 396.732 201.144 389.72 196.134 384.616Z" fill="white"/>
<circle cx="83.3687" cy="492.942" r="6.0481" fill="#4C78FF"/>
<circle cx="83.3687" cy="518.748" r="6.0481" fill="#16DBCC"/>
<circle cx="203.524" cy="492.942" r="6.0481" fill="#FF82AC"/>
<circle cx="203.524" cy="518.748" r="6.0481" fill="#FFBB38"/>
</g>
<rect x="97.481" y="487.701" width="80.6413" height="11.2898" rx="5.64489" fill="#E2E8F0"/>
<rect x="216.83" y="487.701" width="80.6413" height="11.2898" rx="5.64489" fill="#E2E8F0"/>
<rect x="216.83" y="512.699" width="80.6413" height="11.2898" rx="5.64489" fill="#E2E8F0"/>
<rect x="97.481" y="513.506" width="80.6413" height="11.2898" rx="5.64489" fill="#E2E8F0"/>
<g filter="url(#filter1_d_747_6811)">
<rect x="382.039" y="12" width="411.249" height="214.763" rx="19.0393" fill="white"/>
<rect x="451.047" y="187.352" width="319.204" height="0.380786" stroke="#DFE5EE" stroke-width="0.380786" stroke-dasharray="3.05 3.05"/>
<rect x="451.047" y="152.32" width="319.204" height="0.380786" stroke="#DFE5EE" stroke-width="0.380786" stroke-dasharray="3.05 3.05"/>
<rect x="451.047" y="115.764" width="319.204" height="0.380786" stroke="#DFE5EE" stroke-width="0.380786" stroke-dasharray="3.05 3.05"/>
<rect x="451.047" y="79.2087" width="319.204" height="0.380786" stroke="#DFE5EE" stroke-width="0.380786" stroke-dasharray="3.05 3.05"/>
<rect x="451.047" y="42.6533" width="319.204" height="0.380786" stroke="#DFE5EE" stroke-width="0.380786" stroke-dasharray="3.05 3.05"/>
<path d="M465.554 165.076L522.838 100.342L577.861 129.282L634.768 52.3633L691.298 111.004L749.713 81.3031" stroke="#FCAA0B" stroke-width="2.28472" stroke-linecap="round" stroke-linejoin="round"/>
<path d="M468.558 165.837C468.558 167.741 467.033 169.265 465.178 169.265C463.322 169.265 461.798 167.741 461.798 165.837C461.798 163.934 463.322 162.41 465.178 162.41C467.033 162.41 468.558 163.934 468.558 165.837Z" fill="white" stroke="#EDA10D" stroke-width="2.28472"/>
<path d="M526.595 101.104C526.595 103.008 525.071 104.531 523.215 104.531C521.36 104.531 519.835 103.008 519.835 101.104C519.835 99.2 521.36 97.6768 523.215 97.6768C525.071 97.6768 526.595 99.2 526.595 101.104Z" fill="white" stroke="#EDA10D" stroke-width="2.28472"/>
<path d="M580.864 128.521C580.864 130.424 579.34 131.948 577.484 131.948C575.629 131.948 574.104 130.424 574.104 128.521C574.104 126.617 575.629 125.093 577.484 125.093C579.34 125.093 580.864 126.617 580.864 128.521Z" fill="white" stroke="#EDA10D" stroke-width="2.28472"/>
<path d="M638.902 52.3633C638.902 54.2672 637.378 55.7904 635.522 55.7904C633.666 55.7904 632.142 54.2672 632.142 52.3633C632.142 50.4594 633.666 48.9362 635.522 48.9362C637.378 48.9362 638.902 50.4594 638.902 52.3633Z" fill="white" stroke="#EDA10D" stroke-width="2.28472"/>
<path d="M695.432 110.243C695.432 112.147 693.908 113.67 692.052 113.67C690.197 113.67 688.672 112.147 688.672 110.243C688.672 108.339 690.197 106.816 692.052 106.816C693.908 106.816 695.432 108.339 695.432 110.243Z" fill="white" stroke="#EDA10D" stroke-width="2.28472"/>
<path d="M753.47 80.5414C753.47 82.4453 751.946 83.9685 750.09 83.9685C748.234 83.9685 746.71 82.4453 746.71 80.5414C746.71 78.6375 748.234 77.1143 750.09 77.1143C751.946 77.1143 753.47 78.6375 753.47 80.5414Z" fill="white" stroke="#EDA10D" stroke-width="2.28472"/>
<rect x="405.648" y="37.8934" width="34.2707" height="8.37729" rx="4.18864" fill="#E2E8F0"/>
<rect x="405.648" y="75.972" width="34.2707" height="8.37729" rx="4.18864" fill="#E2E8F0"/>
<rect x="405.648" y="111.766" width="34.2707" height="8.37729" rx="4.18864" fill="#E2E8F0"/>
<rect x="405.648" y="148.321" width="34.2707" height="8.37729" rx="4.18864" fill="#E2E8F0"/>
<rect x="405.648" y="184.115" width="34.2707" height="8.37729" rx="4.18864" fill="#E2E8F0"/>
<rect x="452.104" y="199.347" width="34.2707" height="8.37729" rx="4.18864" fill="#E2E8F0"/>
<rect x="509.983" y="199.347" width="34.2707" height="8.37729" rx="4.18864" fill="#E2E8F0"/>
<rect x="562.532" y="199.347" width="34.2707" height="8.37729" rx="4.18864" fill="#E2E8F0"/>
<rect x="618.126" y="199.347" width="34.2707" height="8.37729" rx="4.18864" fill="#E2E8F0"/>
<rect x="674.483" y="199.347" width="34.2707" height="8.37729" rx="4.18864" fill="#E2E8F0"/>
<rect x="732.362" y="199.347" width="34.2707" height="8.37729" rx="4.18864" fill="#E2E8F0"/>
</g>
<g clip-path="url(#clip0_747_6811)">
<path fill-rule="evenodd" clip-rule="evenodd" d="M749.959 268.736C760.392 263.848 769.953 256.905 774.475 247.167C776.135 243.59 776.685 239.708 777.289 235.748C777.342 235.4 777.102 235.074 776.754 235.022C776.407 234.968 776.08 235.208 776.027 235.555C775.442 239.395 774.927 243.163 773.318 246.628C768.865 256.219 759.364 262.983 749.064 267.747C748.997 267.673 748.932 267.598 748.866 267.522C747.426 265.864 744.577 264.744 741.237 264.166C736.388 263.327 730.508 263.585 726.712 264.679C724.961 265.182 723.637 265.885 722.974 266.7C722.421 267.378 722.254 268.139 722.548 268.97C722.792 269.654 723.267 270.24 723.944 270.722C724.846 271.365 726.125 271.83 727.636 272.127C733.228 273.226 742.083 272.082 745.524 270.677C746.602 270.236 747.676 269.776 748.746 269.293C749.168 269.757 749.57 270.201 749.913 270.659C750.417 271.331 750.789 272.029 750.856 272.882C750.979 274.456 750.33 275.883 749.331 277.149C747.732 279.176 745.243 280.789 743.266 281.898C732.151 288.134 719.666 287.173 708.398 284.028C697.003 280.848 686.841 275.426 680.526 272.786C680.201 272.651 679.826 272.804 679.691 273.129C679.555 273.453 679.709 273.827 680.033 273.963C686.383 276.618 696.601 282.061 708.055 285.257C719.636 288.489 732.466 289.421 743.892 283.01C745.994 281.83 748.631 280.096 750.334 277.939C751.536 276.414 752.276 274.679 752.128 272.784C752.041 271.679 751.584 270.763 750.935 269.895C750.643 269.505 750.31 269.124 749.959 268.736ZM747.85 268.298C746.539 266.844 743.977 265.935 741.019 265.423C736.36 264.616 730.713 264.854 727.064 265.904C725.842 266.256 724.853 266.691 724.239 267.224C723.795 267.61 723.572 268.042 723.751 268.543C723.955 269.119 724.431 269.567 725.077 269.933C725.821 270.355 726.784 270.66 727.883 270.875C733.247 271.929 741.742 270.844 745.041 269.496C745.979 269.112 746.917 268.713 747.85 268.298Z" fill="#7EE2B8"/>
<path fill-rule="evenodd" clip-rule="evenodd" d="M776.107 233.861C776.338 234.044 776.587 234.356 776.84 234.696C777.415 235.465 777.961 236.403 778.235 236.838C778.424 237.135 778.819 237.224 779.117 237.035C779.414 236.847 779.502 236.452 779.314 236.154C778.977 235.623 778.253 234.382 777.549 233.533C777.187 233.097 776.816 232.762 776.5 232.603C776.19 232.45 775.918 232.455 775.674 232.546C775.418 232.642 775.166 232.873 774.96 233.257C774.733 233.68 774.523 234.347 774.196 235.026C773.922 235.595 773.56 236.181 772.975 236.566C772.681 236.76 772.598 237.155 772.793 237.449C772.986 237.743 773.382 237.826 773.675 237.631C774.773 236.91 775.329 235.692 775.724 234.704C775.841 234.409 776.009 234.057 776.107 233.861Z" fill="#7EE2B8"/>
</g>
<path fill-rule="evenodd" clip-rule="evenodd" d="M13.718 308.919C9.80313 307.82 5.70435 307.266 1.72827 306.758C0.871886 306.652 0.0767901 307.246 0.0156196 308.083C-0.106721 308.92 0.505342 309.686 1.30056 309.792C5.15429 310.281 9.13001 310.804 12.8614 311.862C13.6566 312.091 14.5134 311.619 14.7581 310.807C15.0027 309.995 14.5132 309.149 13.718 308.919Z" fill="#F5CD47"/>
<path fill-rule="evenodd" clip-rule="evenodd" d="M25.5845 293.343C19.284 286.913 12.1882 281.311 6.01001 274.709C5.45947 274.093 4.48075 274.06 3.86904 274.635C3.25734 275.211 3.19641 276.18 3.80811 276.797C9.98632 283.418 17.0821 289.038 23.3826 295.487C23.9944 296.089 24.9728 296.097 25.5845 295.505C26.1351 294.914 26.1962 293.945 25.5845 293.343Z" fill="#F5CD47"/>
<path fill-rule="evenodd" clip-rule="evenodd" d="M37.3913 268.612C37.5748 272.292 37.758 275.972 37.9415 279.653C37.9415 280.496 38.6759 281.147 39.5323 281.106C40.3887 281.064 41 280.347 41 279.503C40.8165 275.817 40.6334 272.131 40.4498 268.446C40.3887 267.603 39.6545 266.956 38.7981 267.002C38.0029 267.048 37.3301 267.77 37.3913 268.612Z" fill="#F5CD47"/>
<defs>
<filter id="filter0_d_747_6811" x="7.96913" y="289.323" width="340.306" height="308.05" filterUnits="userSpaceOnUse" color-interpolation-filters="sRGB">
<feFlood flood-opacity="0" result="BackgroundImageFix"/>
<feColorMatrix in="SourceAlpha" type="matrix" values="0 0 0 0 0 0 0 0 0 0 0 0 0 0 0 0 0 0 127 0" result="hardAlpha"/>
<feMorphology radius="9.67696" operator="erode" in="SourceAlpha" result="effect1_dropShadow_747_6811"/>
<feOffset dy="19.3539"/>
<feGaussianBlur stdDeviation="19.3539"/>
<feComposite in2="hardAlpha" operator="out"/>
<feColorMatrix type="matrix" values="0 0 0 0 0.141176 0 0 0 0 0.141176 0 0 0 0 0.141176 0 0 0 0.18 0"/>
<feBlend mode="normal" in2="BackgroundImageFix" result="effect1_dropShadow_747_6811"/>
<feBlend mode="normal" in="SourceGraphic" in2="effect1_dropShadow_747_6811" result="shape"/>
</filter>
<filter id="filter1_d_747_6811" x="348.247" y="0.735945" width="478.833" height="282.348" filterUnits="userSpaceOnUse" color-interpolation-filters="sRGB">
<feFlood flood-opacity="0" result="BackgroundImageFix"/>
<feColorMatrix in="SourceAlpha" type="matrix" values="0 0 0 0 0 0 0 0 0 0 0 0 0 0 0 0 0 0 127 0" result="hardAlpha"/>
<feMorphology radius="11.2641" operator="erode" in="SourceAlpha" result="effect1_dropShadow_747_6811"/>
<feOffset dy="22.5281"/>
<feGaussianBlur stdDeviation="22.5281"/>
<feComposite in2="hardAlpha" operator="out"/>
<feColorMatrix type="matrix" values="0 0 0 0 0.141176 0 0 0 0 0.141176 0 0 0 0 0.141176 0 0 0 0.18 0"/>
<feBlend mode="normal" in2="BackgroundImageFix" result="effect1_dropShadow_747_6811"/>
<feBlend mode="normal" in="SourceGraphic" in2="effect1_dropShadow_747_6811" result="shape"/>
</filter>
<radialGradient id="paint0_radial_747_6811" cx="0" cy="0" r="1" gradientUnits="userSpaceOnUse" gradientTransform="translate(180.432 411.869) rotate(0.544294) scale(61.4089)">
<stop/>
<stop offset="1" stop-opacity="0"/>
</radialGradient>
<linearGradient id="paint1_linear_747_6811" x1="143.987" y1="411.415" x2="144.057" y2="404.026" gradientUnits="userSpaceOnUse">
<stop stop-color="white"/>
<stop offset="1"/>
</linearGradient>
<radialGradient id="paint2_radial_747_6811" cx="0" cy="0" r="1" gradientUnits="userSpaceOnUse" gradientTransform="translate(182.095 410.207) rotate(0.544294) scale(27.9429)">
<stop/>
<stop offset="1" stop-opacity="0"/>
</radialGradient>
<clipPath id="clip0_747_6811">
<rect width="84.188" height="84.188" fill="white" transform="translate(673 269.909) rotate(-60)"/>
</clipPath>
</defs>
</svg>
