<svg xmlns="http://www.w3.org/2000/svg" width="24" height="24" viewBox="0 0 24 24" fill="none">
    <path
        d="M5.35756 4.4481H18.6433C18.7611 4.4481 18.8576 4.35167 18.8576 4.23382V2.73382C18.8576 2.61596 18.7611 2.51953 18.6433 2.51953H5.35756C5.2397 2.51953 5.14328 2.61596 5.14328 2.73382V4.23382C5.14328 4.35167 5.2397 4.4481 5.35756 4.4481ZM18.6433 15.8052C18.7611 15.8052 18.8576 15.7088 18.8576 15.591V14.091C18.8576 13.9731 18.7611 13.8767 18.6433 13.8767H5.35756C5.2397 13.8767 5.14328 13.9731 5.14328 14.091V15.591C5.14328 15.7088 5.2397 15.8052 5.35756 15.8052H18.6433ZM22.5004 19.5552H1.50042C1.38256 19.5552 1.28613 19.6517 1.28613 19.7695V21.2695C1.28613 21.3874 1.38256 21.4838 1.50042 21.4838H22.5004C22.6183 21.4838 22.7147 21.3874 22.7147 21.2695V19.7695C22.7147 19.6517 22.6183 19.5552 22.5004 19.5552ZM22.5004 8.1981H1.50042C1.38256 8.1981 1.28613 8.29453 1.28613 8.41239V9.91239C1.28613 10.0302 1.38256 10.1267 1.50042 10.1267H22.5004C22.6183 10.1267 22.7147 10.0302 22.7147 9.91239V8.41239C22.7147 8.29453 22.6183 8.1981 22.5004 8.1981Z"
        fill="#121212" />
</svg>