<svg xmlns="http://www.w3.org/2000/svg" width="24" height="24" viewBox="0 0 24 24" fill="none">
    <path
        d="M22.5004 2.51953H9.2147C9.09685 2.51953 9.00042 2.61596 9.00042 2.73382V4.23382C9.00042 4.35167 9.09685 4.4481 9.2147 4.4481H22.5004C22.6183 4.4481 22.7147 4.35167 22.7147 4.23382V2.73382C22.7147 2.61596 22.6183 2.51953 22.5004 2.51953ZM22.5004 13.8767H9.2147C9.09685 13.8767 9.00042 13.9731 9.00042 14.091V15.591C9.00042 15.7088 9.09685 15.8052 9.2147 15.8052H22.5004C22.6183 15.8052 22.7147 15.7088 22.7147 15.591V14.091C22.7147 13.9731 22.6183 13.8767 22.5004 13.8767ZM22.5004 19.5552H1.50042C1.38256 19.5552 1.28613 19.6517 1.28613 19.7695V21.2695C1.28613 21.3874 1.38256 21.4838 1.50042 21.4838H22.5004C22.6183 21.4838 22.7147 21.3874 22.7147 21.2695V19.7695C22.7147 19.6517 22.6183 19.5552 22.5004 19.5552ZM22.5004 8.1981H1.50042C1.38256 8.1981 1.28613 8.29453 1.28613 8.41239V9.91239C1.28613 10.0302 1.38256 10.1267 1.50042 10.1267H22.5004C22.6183 10.1267 22.7147 10.0302 22.7147 9.91239V8.41239C22.7147 8.29453 22.6183 8.1981 22.5004 8.1981Z"
        fill="#121212" />
</svg>