<svg xmlns="http://www.w3.org/2000/svg" width="24" height="24" viewBox="0 0 24 24" fill="none">
    <path
        d="M1.50042 4.4481H14.7861C14.904 4.4481 15.0004 4.35167 15.0004 4.23382V2.73382C15.0004 2.61596 14.904 2.51953 14.7861 2.51953H1.50042C1.38256 2.51953 1.28613 2.61596 1.28613 2.73382V4.23382C1.28613 4.35167 1.38256 4.4481 1.50042 4.4481ZM1.50042 15.8052H14.7861C14.904 15.8052 15.0004 15.7088 15.0004 15.591V14.091C15.0004 13.9731 14.904 13.8767 14.7861 13.8767H1.50042C1.38256 13.8767 1.28613 13.9731 1.28613 14.091V15.591C1.28613 15.7088 1.38256 15.8052 1.50042 15.8052ZM22.5004 19.5552H1.50042C1.38256 19.5552 1.28613 19.6517 1.28613 19.7695V21.2695C1.28613 21.3874 1.38256 21.4838 1.50042 21.4838H22.5004C22.6183 21.4838 22.7147 21.3874 22.7147 21.2695V19.7695C22.7147 19.6517 22.6183 19.5552 22.5004 19.5552ZM22.5004 8.1981H1.50042C1.38256 8.1981 1.28613 8.29453 1.28613 8.41239V9.91239C1.28613 10.0302 1.38256 10.1267 1.50042 10.1267H22.5004C22.6183 10.1267 22.7147 10.0302 22.7147 9.91239V8.41239C22.7147 8.29453 22.6183 8.1981 22.5004 8.1981Z"
        fill="#121212" />
</svg>