<svg xmlns="http://www.w3.org/2000/svg" width="24" height="24" viewBox="0 0 24 24" fill="none">
    <path
        d="M16.9768 11.1827C17.8768 10.2452 18.4286 8.97828 18.4286 7.58543V7.31221C18.4286 4.43007 16.0687 2.09167 13.1598 2.09167H5.23393C4.82946 2.09167 4.5 2.42114 4.5 2.8256V21.0158C4.5 21.4524 4.85357 21.806 5.29018 21.806H13.8268C16.9607 21.806 19.5 19.2827 19.5 16.1676V15.8729C19.5 13.9176 18.4982 12.1952 16.9768 11.1827ZM7.07143 4.6631H13.0902C14.6196 4.6631 15.8571 5.85239 15.8571 7.32293V7.57739C15.8571 9.04525 14.617 10.2372 13.0902 10.2372H7.07143V4.6631ZM16.8911 16.1649C16.8911 17.8497 15.5062 19.2158 13.7973 19.2158H7.07143V12.8247H13.7973C15.5062 12.8247 16.8911 14.1908 16.8911 15.8756V16.1649Z"
        fill="#121212" />
</svg>