<svg width="24" height="16" viewBox="0 0 24 16" fill="none" xmlns="http://www.w3.org/2000/svg">
    <g clip-path="url(#clip0_851_4572)">
        <g clip-path="url(#clip1_851_4572)">
            <path
                d="M15.0003 13.4269H1.00028C0.921708 13.4269 0.857422 13.4912 0.857422 13.5698V14.9983C0.857422 15.0769 0.921708 15.1412 1.00028 15.1412H15.0003C15.0789 15.1412 15.1431 15.0769 15.1431 14.9983V13.5698C15.1431 13.4912 15.0789 13.4269 15.0003 13.4269ZM3.38778 11.9983H4.90564C4.98064 11.9983 5.04849 11.9501 5.07171 11.8769L6.03064 8.91261H9.94492L10.8949 11.8769C10.9181 11.9483 10.9842 11.9983 11.061 11.9983H12.6521C12.6717 11.9983 12.6914 11.9948 12.7092 11.9894C12.7308 11.982 12.7508 11.9703 12.7679 11.9552C12.785 11.94 12.799 11.9216 12.8089 11.901C12.8189 11.8804 12.8247 11.8581 12.8259 11.8352C12.8272 11.8124 12.824 11.7895 12.8164 11.768L9.10028 0.973326C9.08823 0.93924 9.06602 0.909667 9.03665 0.888593C9.00727 0.86752 8.97214 0.855959 8.936 0.855469H7.10921C7.03421 0.855469 6.96814 0.901897 6.94492 0.973326L3.22349 11.768C3.21635 11.7858 3.21457 11.8055 3.21457 11.8251C3.21278 11.9198 3.29135 11.9983 3.38778 11.9983ZM7.95742 2.78225H8.03064L9.52707 7.49297H6.44492L7.95742 2.78225Z"
                fill="#121212" />
        </g>
        <path
            d="M23.3213 5.71436H22.6517C22.6062 5.71436 22.5633 5.73668 22.5365 5.77328L19.9999 9.26971L17.4633 5.77328C17.4365 5.73668 17.3937 5.71436 17.3481 5.71436H16.6785C16.6204 5.71436 16.5865 5.78043 16.6204 5.82775L19.7687 10.1679C19.8829 10.3251 20.1169 10.3251 20.2303 10.1679L23.3785 5.82775C23.4133 5.78043 23.3794 5.71436 23.3213 5.71436Z"
            fill="#121212" />
    </g>
    <defs>
        <clipPath id="clip0_851_4572">
            <rect width="24" height="16" fill="white" />
        </clipPath>
        <clipPath id="clip1_851_4572">
            <rect width="16" height="16" fill="white" />
        </clipPath>
    </defs>
</svg>