<svg xmlns="http://www.w3.org/2000/svg" width="24" height="24" viewBox="0 0 24 24" fill="none">
    <path
        d="M19.6609 2.57227H8.08949C7.97164 2.57227 7.87521 2.66869 7.87521 2.78655V4.50084C7.87521 4.61869 7.97164 4.71512 8.08949 4.71512H12.9431L8.76449 19.2866H4.41985C4.30199 19.2866 4.20557 19.383 4.20557 19.5008V21.2151C4.20557 21.333 4.30199 21.4294 4.41985 21.4294H15.9913C16.1091 21.4294 16.2056 21.333 16.2056 21.2151V19.5008C16.2056 19.383 16.1091 19.2866 15.9913 19.2866H10.9931L15.1716 4.71512H19.6609C19.7788 4.71512 19.8752 4.61869 19.8752 4.50084V2.78655C19.8752 2.66869 19.7788 2.57227 19.6609 2.57227Z"
        fill="#121212" />
</svg>