<svg xmlns="http://www.w3.org/2000/svg" width="24" height="24" viewBox="0 0 24 24" fill="none">
    <path
        d="M22.9298 18.6445H7.28697C7.16911 18.6445 7.07268 18.741 7.07268 18.8588V20.3588C7.07268 20.4767 7.16911 20.5731 7.28697 20.5731H22.9298C23.0477 20.5731 23.1441 20.4767 23.1441 20.3588V18.8588C23.1441 18.741 23.0477 18.6445 22.9298 18.6445ZM22.9298 3.43025H7.28697C7.16911 3.43025 7.07268 3.52667 7.07268 3.64453V5.14453C7.07268 5.26239 7.16911 5.35882 7.28697 5.35882H22.9298C23.0477 5.35882 23.1441 5.26239 23.1441 5.14453V3.64453C23.1441 3.52667 23.0477 3.43025 22.9298 3.43025ZM22.9298 11.0374H7.28697C7.16911 11.0374 7.07268 11.1338 7.07268 11.2517V12.7517C7.07268 12.8695 7.16911 12.966 7.28697 12.966H22.9298C23.0477 12.966 23.1441 12.8695 23.1441 12.7517V11.2517C23.1441 11.1338 23.0477 11.0374 22.9298 11.0374ZM4.07268 17.3588H0.965541C0.906613 17.3588 0.858398 17.407 0.858398 17.466V18.3767C0.858398 18.4356 0.906613 18.4838 0.965541 18.4838H2.90483V19.0329H1.94858C1.88965 19.0329 1.84143 19.0811 1.84143 19.1401V20.0508C1.84143 20.1097 1.88965 20.1579 1.94858 20.1579H2.90483V20.7338H0.965541C0.906613 20.7338 0.858398 20.782 0.858398 20.841V21.7517C0.858398 21.8106 0.906613 21.8588 0.965541 21.8588H4.07268C4.13161 21.8588 4.17983 21.8106 4.17983 21.7517V17.466C4.17983 17.407 4.13161 17.3588 4.07268 17.3588ZM0.965541 3.3231H1.9834V6.53739C1.9834 6.59632 2.03161 6.64453 2.09054 6.64453H3.16197C3.2209 6.64453 3.26911 6.59632 3.26911 6.53739V2.35882C3.26911 2.24096 3.17268 2.14453 3.05483 2.14453H0.965541C0.906613 2.14453 0.858398 2.19275 0.858398 2.25167V3.21596C0.858398 3.27489 0.906613 3.3231 0.965541 3.3231ZM4.07268 9.75167H0.965541C0.906613 9.75167 0.858398 9.79989 0.858398 9.85882V10.8231C0.858398 10.882 0.906613 10.9302 0.965541 10.9302H2.79768L0.914648 13.0115C0.879132 13.0514 0.859165 13.1027 0.858398 13.1561V14.1445C0.858398 14.2035 0.906613 14.2517 0.965541 14.2517H4.07268C4.13161 14.2517 4.17983 14.2035 4.17983 14.1445V13.1802C4.17983 13.1213 4.13161 13.0731 4.07268 13.0731H2.24054L4.12358 10.9919C4.15909 10.952 4.17906 10.9006 4.17983 10.8472V9.85882C4.17983 9.79989 4.13161 9.75167 4.07268 9.75167Z"
        fill="#121212" />
</svg>