<svg xmlns="http://www.w3.org/2000/svg" width="24" height="24" viewBox="0 0 24 24" fill="none">
    <path
        d="M20.3578 19.8231H3.64348C3.52563 19.8231 3.4292 19.9142 3.4292 20.0267V21.6552C3.4292 21.7677 3.52563 21.8588 3.64348 21.8588H20.3578C20.4756 21.8588 20.5721 21.7677 20.5721 21.6552V20.0267C20.5721 19.9142 20.4756 19.8231 20.3578 19.8231ZM12.0006 17.7874C13.8596 17.7874 15.606 17.0615 16.9238 15.7463C18.2417 14.4311 18.9649 12.682 18.9649 10.8231V2.46596C18.9649 2.28917 18.8203 2.14453 18.6435 2.14453H17.0363C16.8596 2.14453 16.7149 2.28917 16.7149 2.46596V10.8231C16.7149 13.4213 14.5988 15.5374 12.0006 15.5374C9.40241 15.5374 7.28634 13.4213 7.28634 10.8231V2.46596C7.28634 2.28917 7.1417 2.14453 6.96491 2.14453H5.35777C5.18099 2.14453 5.03634 2.28917 5.03634 2.46596V10.8231C5.03634 12.682 5.76224 14.4285 7.07741 15.7463C8.39259 17.0642 10.1417 17.7874 12.0006 17.7874Z"
        fill="#121212" />
</svg>