<svg width="726" height="900" viewBox="0 0 726 900" fill="none" xmlns="http://www.w3.org/2000/svg">
<rect x="-0.0292969" width="725.5" height="900" fill="url(#paint0_linear_1_1017)"/>
<path d="M643.802 478.34C643.802 631.936 533.906 756.34 398.47 756.34C263.033 756.34 153.138 631.936 153.138 478.34C153.138 324.744 263.033 200.34 398.47 200.34C533.906 200.34 643.802 324.744 643.802 478.34Z" stroke="#0066CC"/>
<path d="M572.303 452.34C572.303 605.936 462.407 730.34 326.971 730.34C191.534 730.34 81.6387 605.936 81.6387 452.34C81.6387 298.744 191.534 174.34 326.971 174.34C462.407 174.34 572.303 298.744 572.303 452.34Z" stroke="#0066CC"/>
<defs>
<linearGradient id="paint0_linear_1_1017" x1="362.721" y1="0" x2="362.721" y2="900" gradientUnits="userSpaceOnUse">
<stop stop-color="#1857C8"/>
<stop offset="1" stop-color="#191F76"/>
</linearGradient>
</defs>
</svg>
