<svg width="146" height="38" viewBox="0 0 146 38" fill="none" xmlns="http://www.w3.org/2000/svg">
<path d="M15.0331 0.676758L1.54785 9.81172L15.0331 19.0542L28.4087 9.86437L15.0331 0.676758ZM15.0068 14.4384L8.29377 9.83804L15.0046 5.2925L21.6627 9.86656L15.0068 14.4384Z" fill="white"/>
<path d="M5.66373 14.7588L0.824219 18.1306L13.4385 26.8839V21.61L8.29409 18.293L9.30543 17.4242L5.66373 14.7588Z" fill="white"/>
<path d="M24.1635 14.7588L29.003 18.1306L16.3887 26.8839V21.61L21.5331 18.293L20.5218 17.4242L24.1635 14.7588Z" fill="white"/>
<path d="M41.894 8.58315C42.2472 8.37693 42.6114 8.19484 42.9887 8.03689C44.1317 7.56303 45.3229 7.3261 46.5646 7.3261C47.8041 7.3261 48.9975 7.56303 50.1405 8.03689C51.2834 8.51075 52.2926 9.18644 53.1679 10.0618C54.0432 10.9371 54.7189 11.9462 55.1928 13.0892C55.6666 14.2322 55.9036 15.4234 55.9036 16.6651C55.9036 17.9046 55.6666 19.098 55.1928 20.241C54.7189 21.3839 54.0432 22.3931 53.1679 23.2684C52.2926 24.1437 51.2834 24.8194 50.1405 25.2933C48.9975 25.7671 47.8063 26.0041 46.5646 26.0041C45.3251 26.0041 44.1317 25.7671 42.9887 25.2933C41.8457 24.8194 40.8366 24.1437 39.9612 23.2684C39.0859 22.3931 38.4102 21.3839 37.9364 20.241C37.4625 19.098 37.2256 17.9068 37.2256 16.6651V2.65332H41.8962V8.58315H41.894ZM46.5646 21.3335C47.8545 21.3335 48.9536 20.8772 49.8662 19.9645C50.7788 19.0519 51.2352 17.9528 51.2352 16.6629C51.2352 15.3729 50.7788 14.2738 49.8662 13.3612C48.9536 12.4486 47.8545 11.9923 46.5646 11.9923C45.2746 11.9923 44.1755 12.4486 43.2629 13.3612C42.3503 14.2738 41.894 15.3729 41.894 16.6629C41.894 17.9528 42.3503 19.0519 43.2629 19.9645C44.1733 20.8772 45.2746 21.3335 46.5646 21.3335Z" fill="white"/>
<path d="M65.6091 11.9921H55.6865V7.32373H74.3645L64.442 21.3333H74.3645V26.0039H55.6865L65.6091 11.9921Z" fill="white"/>
<path d="M87.496 19.0715L91.4909 21.4605C91.1004 22.1165 90.6331 22.7198 90.0868 23.266C89.2115 24.1414 88.2024 24.817 87.0594 25.2909C85.9164 25.7648 84.7252 26.0017 83.4835 26.0017C82.244 26.0017 81.0506 25.7648 79.9076 25.2909C78.7647 24.817 77.7555 24.1414 76.8802 23.266C76.0049 22.3907 75.3292 21.3816 74.8553 20.2386C74.3815 19.0956 74.1445 17.9044 74.1445 16.6627C74.1445 15.4232 74.3815 14.2298 74.8553 13.0868C75.3292 11.9439 76.0049 10.9347 76.8802 10.0594C77.7555 9.18407 78.7647 8.50838 79.9076 8.03452C81.0506 7.56066 82.2418 7.32373 83.4835 7.32373C84.723 7.32373 85.9164 7.56066 87.0594 8.03452C88.2024 8.50838 89.2115 9.18407 90.0868 10.0594C90.6331 10.6078 91.1026 11.2089 91.4909 11.8649L87.496 14.2561C87.3007 13.9402 87.0638 13.6419 86.7852 13.3632C85.8726 12.4506 84.7735 11.9943 83.4835 11.9943C82.1936 11.9943 81.0945 12.4506 80.1818 13.3632C79.2692 14.2759 78.8129 15.375 78.8129 16.6649C78.8129 17.9549 79.2692 19.0539 80.1818 19.9666C81.0945 20.8792 82.1936 21.3355 83.4835 21.3355C84.7735 21.3355 85.8726 20.8792 86.7852 19.9666C87.066 19.6858 87.3029 19.3874 87.496 19.0715Z" fill="white"/>
<path d="M100.997 26.0017C99.7577 26.0017 98.5643 25.7648 97.4213 25.2909C96.2783 24.817 95.2692 24.1414 94.3939 23.266C93.5185 22.3907 92.8429 21.3816 92.369 20.2386C91.8951 19.0956 91.6582 17.9044 91.6582 16.6627C91.6582 15.4232 91.8951 14.2298 92.369 13.0868C92.8429 11.9439 93.5185 10.9347 94.3939 10.0594C95.2692 9.18407 96.2783 8.50838 97.4213 8.03452C98.5643 7.56066 99.7555 7.32373 100.997 7.32373C102.237 7.32373 103.43 7.56066 104.573 8.03452C105.716 8.50838 106.725 9.18407 107.601 10.0594C108.476 10.9347 109.152 11.9439 109.625 13.0868C110.099 14.2298 110.336 15.421 110.336 16.6627C110.336 17.9022 110.099 19.0956 109.625 20.2386C109.152 21.3816 108.476 22.3907 107.601 23.266C106.725 24.1414 105.716 24.817 104.573 25.2909C103.428 25.7648 102.237 26.0017 100.997 26.0017ZM100.997 21.3333C102.287 21.3333 103.386 20.877 104.299 19.9644C105.211 19.0518 105.668 17.9527 105.668 16.6627C105.668 15.3728 105.211 14.2737 104.299 13.3611C103.386 12.4484 102.287 11.9921 100.997 11.9921C99.7072 11.9921 98.6081 12.4484 97.6955 13.3611C96.7829 14.2737 96.3266 15.3728 96.3266 16.6627C96.3266 17.9527 96.7829 19.0518 97.6955 19.9644C98.606 20.877 99.7072 21.3333 100.997 21.3333Z" fill="white"/>
<path d="M116.812 16.6627V26.0017H112.142V16.6627C112.142 15.4232 112.379 14.2298 112.852 13.0868C113.326 11.9439 114.002 10.9347 114.877 10.0594C115.753 9.18407 116.762 8.50838 117.905 8.03452C119.048 7.56066 120.239 7.32373 121.481 7.32373C122.72 7.32373 123.913 7.56066 125.056 8.03452C126.199 8.50838 127.209 9.18407 128.084 10.0594C128.218 10.1932 128.352 10.3336 128.485 10.4784C128.619 10.3336 128.753 10.1932 128.887 10.0594C129.762 9.18407 130.771 8.50838 131.914 8.03452C133.057 7.56066 134.248 7.32373 135.49 7.32373C136.73 7.32373 137.923 7.56066 139.066 8.03452C140.209 8.50838 141.218 9.18407 142.093 10.0594C142.969 10.9347 143.644 11.9439 144.118 13.0868C144.592 14.2298 144.829 15.421 144.829 16.6627V26.0017H140.159V16.6627C140.159 15.3728 139.702 14.2737 138.79 13.3611C137.877 12.4484 136.778 11.9921 135.488 11.9921C134.198 11.9921 133.099 12.4484 132.186 13.3611C131.274 14.2737 130.817 15.3728 130.817 16.6627V26.0017H126.147V16.6627C126.147 15.3728 125.69 14.2737 124.778 13.3611C123.865 12.4484 122.766 11.9921 121.476 11.9921C120.186 11.9921 119.087 12.4484 118.175 13.3611C117.266 14.2737 116.812 15.375 116.812 16.6627Z" fill="white"/>
<path d="M3.38407 37.9888C3.01771 37.9888 2.69741 37.9077 2.42319 37.7453C2.14896 37.583 1.93617 37.3548 1.7848 37.0609C1.63342 36.7669 1.55664 36.4247 1.55664 36.032V34.5906C1.55664 34.1958 1.63342 33.8513 1.7848 33.5574C1.93617 33.2634 2.14896 33.0352 2.42319 32.8729C2.69741 32.7106 3.01771 32.6294 3.38407 32.6294C3.68681 32.6294 3.96543 32.6952 4.21552 32.8246C4.4678 32.9541 4.67841 33.1362 4.84733 33.3709C5.01625 33.6034 5.13252 33.8777 5.19176 34.1914H4.43709C4.39102 34.0225 4.31424 33.8755 4.20674 33.7482C4.09925 33.621 3.9742 33.5245 3.82941 33.4543C3.68462 33.3841 3.53544 33.349 3.38188 33.349C3.05939 33.349 2.80052 33.463 2.60308 33.6912C2.40783 33.9193 2.30911 34.2199 2.30911 34.5928V36.0342C2.30911 36.4071 2.40783 36.7077 2.60308 36.9336C2.80052 37.1596 3.05939 37.2737 3.38188 37.2737C3.61003 37.2737 3.82502 37.2013 4.02905 37.0565C4.23088 36.9117 4.36689 36.7033 4.43709 36.4312H5.19176C5.13252 36.745 5.01625 37.017 4.84514 37.2517C4.67402 37.4843 4.46342 37.6663 4.21332 37.798C3.96543 37.923 3.68901 37.9888 3.38407 37.9888Z" fill="white"/>
<path d="M7.60693 37.989C7.11552 37.989 6.73599 37.8464 6.46616 37.5612C6.19632 37.276 6.0625 36.8746 6.0625 36.3568V35.747C6.0625 35.2336 6.19632 34.8365 6.46616 34.5557C6.73599 34.2749 7.11552 34.1323 7.60693 34.1323C8.09834 34.1323 8.47787 34.2727 8.7477 34.5557C9.01754 34.8365 9.15136 35.2358 9.15136 35.747V36.3678C9.15136 36.8833 9.01754 37.2826 8.7477 37.5656C8.47787 37.8486 8.09834 37.989 7.60693 37.989ZM7.60693 37.2892C7.8636 37.2892 8.06324 37.208 8.20364 37.0479C8.34405 36.8877 8.41425 36.6596 8.41425 36.37V35.7491C8.41425 35.4574 8.34405 35.2336 8.20364 35.0735C8.06324 34.9133 7.8636 34.8343 7.60693 34.8343C7.35245 34.8343 7.15282 34.9133 7.01022 35.0735C6.86762 35.2314 6.79742 35.4574 6.79742 35.7491V36.37C6.79742 36.6618 6.86762 36.8877 7.01022 37.0479C7.15282 37.208 7.35026 37.2892 7.60693 37.2892Z" fill="white"/>
<path d="M10.2002 37.9339V34.1847H10.9373V37.9339H10.2002ZM12.4752 37.9339V35.6633C12.4752 35.3979 12.4072 35.1939 12.2711 35.0491C12.1351 34.9043 11.9421 34.8319 11.692 34.8319C11.4507 34.8319 11.2642 34.8955 11.1348 35.0228C11.0031 35.15 10.9373 35.3299 10.9373 35.5602L10.8605 34.8385C10.9768 34.6125 11.126 34.437 11.3146 34.3142C11.5011 34.1913 11.7073 34.1299 11.9333 34.1299C12.3391 34.1299 12.6551 34.2637 12.8788 34.5292C13.1004 34.7946 13.2123 35.1719 13.2123 35.6568V37.9317H12.4752V37.9339Z" fill="white"/>
<path d="M15.6566 37.9888C15.3253 37.9888 15.0226 37.9405 14.7528 37.8418C14.4829 37.7453 14.2394 37.5983 14.0244 37.403L14.461 36.8655C14.665 37.0191 14.8668 37.1354 15.0665 37.2122C15.2661 37.2889 15.4613 37.3284 15.6566 37.3284C15.9484 37.3284 16.1656 37.2824 16.3125 37.1924C16.4573 37.1025 16.5319 36.9665 16.5319 36.7866C16.5319 36.6462 16.4837 36.5474 16.3849 36.4904C16.2884 36.4334 16.159 36.3939 16.0032 36.3763C15.8453 36.3588 15.6763 36.3434 15.4964 36.3303C15.3451 36.3193 15.1937 36.2995 15.0445 36.2732C14.8954 36.2469 14.7593 36.203 14.6365 36.1372C14.5136 36.0714 14.4149 35.9727 14.3425 35.8432C14.2701 35.7138 14.2328 35.5383 14.2328 35.3189C14.2328 34.9218 14.3535 34.6235 14.597 34.426C14.8405 34.2286 15.2025 34.1299 15.6851 34.1299C15.9791 34.1299 16.2511 34.1694 16.5056 34.2483C16.7601 34.3273 16.9948 34.4502 17.2164 34.6125L16.771 35.15C16.5824 35.0293 16.3981 34.9394 16.216 34.8802C16.0339 34.8209 15.8562 34.7902 15.6829 34.7902C15.4328 34.7902 15.2442 34.8319 15.1191 34.9175C14.9941 35.003 14.9305 35.1303 14.9305 35.3014C14.9305 35.4154 14.9743 35.4966 15.0599 35.5449C15.1454 35.5953 15.2617 35.6261 15.4021 35.6414C15.5447 35.6568 15.6961 35.6699 15.8606 35.6809C16.0164 35.6897 16.1743 35.7072 16.3345 35.7335C16.4946 35.7599 16.6416 35.8081 16.7776 35.8805C16.9114 35.9529 17.0211 36.0604 17.1023 36.203C17.1835 36.3456 17.2252 36.5387 17.2252 36.7844C17.2252 37.1858 17.0935 37.4864 16.8325 37.6882C16.5758 37.89 16.1831 37.9888 15.6566 37.9888Z" fill="white"/>
<path d="M19.7017 37.989C19.1796 37.989 18.7738 37.8442 18.4886 37.5524C18.2012 37.2607 18.0586 36.846 18.0586 36.3108V35.8874C18.0586 35.3279 18.1968 34.8958 18.471 34.5908C18.7474 34.2859 19.1357 34.1323 19.6359 34.1323C20.1076 34.1323 20.474 34.3056 20.7328 34.6523C20.9917 34.9989 21.1211 35.4859 21.1211 36.1111V36.3568H18.5939V35.7645H20.4213C20.3994 35.4618 20.3204 35.2248 20.1844 35.0537C20.0484 34.8826 19.8663 34.797 19.6381 34.797C19.3617 34.797 19.1467 34.8892 18.991 35.0713C18.8374 35.2534 18.7606 35.5122 18.7606 35.8479V36.3239C18.7606 36.6354 18.844 36.8724 19.0085 37.0391C19.173 37.2058 19.4056 37.2892 19.7039 37.2892C19.8531 37.2892 20.0023 37.2585 20.1493 37.1992C20.2963 37.14 20.4279 37.0545 20.542 36.947L21.0268 37.4318C20.8403 37.6095 20.6341 37.7477 20.4016 37.8464C20.169 37.9407 19.9365 37.989 19.7017 37.989Z" fill="white"/>
<path d="M23.4574 37.9888C23.1261 37.9888 22.8234 37.9405 22.5535 37.8418C22.2837 37.7453 22.0402 37.5983 21.8252 37.403L22.2618 36.8655C22.4658 37.0191 22.6676 37.1354 22.8672 37.2122C23.0669 37.2889 23.2621 37.3284 23.4574 37.3284C23.7492 37.3284 23.9663 37.2824 24.1133 37.1924C24.2581 37.1025 24.3327 36.9665 24.3327 36.7866C24.3327 36.6462 24.2844 36.5474 24.1857 36.4904C24.0892 36.4334 23.9598 36.3939 23.804 36.3763C23.646 36.3588 23.4771 36.3434 23.2972 36.3303C23.1459 36.3193 22.9945 36.2995 22.8453 36.2732C22.6961 36.2469 22.5601 36.203 22.4373 36.1372C22.3144 36.0714 22.2157 35.9727 22.1433 35.8432C22.0709 35.7138 22.0336 35.5383 22.0336 35.3189C22.0336 34.9218 22.1543 34.6235 22.3978 34.426C22.6413 34.2286 23.0033 34.1299 23.4859 34.1299C23.7799 34.1299 24.0519 34.1694 24.3064 34.2483C24.5587 34.3273 24.7956 34.4502 25.0172 34.6125L24.5718 35.15C24.3832 35.0293 24.1989 34.9394 24.0168 34.8802C23.8347 34.8209 23.657 34.7902 23.4837 34.7902C23.2336 34.7902 23.0449 34.8319 22.9199 34.9175C22.7949 35.003 22.7312 35.1303 22.7312 35.3014C22.7312 35.4154 22.7751 35.4966 22.8607 35.5449C22.9462 35.5953 23.0625 35.6261 23.2029 35.6414C23.3455 35.6568 23.4969 35.6699 23.6614 35.6809C23.8172 35.6897 23.9751 35.7072 24.1353 35.7335C24.2954 35.7599 24.4424 35.8081 24.5784 35.8805C24.7122 35.9529 24.8219 36.0604 24.9031 36.203C24.9843 36.3456 25.0259 36.5387 25.0259 36.7844C25.0259 37.1858 24.8943 37.4864 24.6333 37.6882C24.3766 37.89 23.9839 37.9888 23.4574 37.9888Z" fill="white"/>
<path d="M26.7046 34.1848V36.4642C26.7046 36.7274 26.7727 36.9292 26.9043 37.0718C27.0381 37.2144 27.2268 37.2868 27.4703 37.2868C27.7138 37.2868 27.9003 37.2232 28.0319 37.0938C28.1635 36.9643 28.2293 36.7845 28.2293 36.5497L28.2798 37.3329C28.2118 37.5018 28.0955 37.6532 27.9266 37.787C27.7577 37.9208 27.5383 37.9867 27.2663 37.9867C26.8516 37.9867 26.5313 37.8528 26.3076 37.5874C26.0816 37.3219 25.9697 36.9468 25.9697 36.462V34.1826H26.7046V34.1848ZM28.2293 37.934V34.1848H28.9621V37.934H28.2293Z" fill="white"/>
<path d="M31.4076 37.9888C31.0763 37.9888 30.7736 37.9405 30.5037 37.8418C30.2339 37.7453 29.9904 37.5983 29.7754 37.403L30.212 36.8655C30.416 37.0191 30.6178 37.1354 30.8174 37.2122C31.0171 37.2889 31.2123 37.3284 31.4076 37.3284C31.6993 37.3284 31.9165 37.2824 32.0635 37.1924C32.2083 37.1025 32.2829 36.9665 32.2829 36.7866C32.2829 36.6462 32.2346 36.5474 32.1359 36.4904C32.0394 36.4334 31.91 36.3939 31.7542 36.3763C31.5962 36.3588 31.4273 36.3434 31.2474 36.3303C31.0961 36.3193 30.9447 36.2995 30.7955 36.2732C30.6463 36.2469 30.5103 36.203 30.3875 36.1372C30.2646 36.0714 30.1659 35.9727 30.0935 35.8432C30.0211 35.7138 29.9838 35.5383 29.9838 35.3189C29.9838 34.9218 30.1045 34.6235 30.348 34.426C30.5915 34.2286 30.9535 34.1299 31.4361 34.1299C31.7301 34.1299 32.0021 34.1694 32.2566 34.2483C32.5111 34.3273 32.7458 34.4502 32.9674 34.6125L32.522 35.15C32.3334 35.0293 32.1491 34.9394 31.967 34.8802C31.7849 34.8209 31.6072 34.7902 31.4339 34.7902C31.1838 34.7902 30.9951 34.8319 30.8701 34.9175C30.745 35.003 30.6814 35.1303 30.6814 35.3014C30.6814 35.4154 30.7253 35.4966 30.8109 35.5449C30.8964 35.5953 31.0127 35.6261 31.1531 35.6414C31.2957 35.6568 31.4471 35.6699 31.6116 35.6809C31.7674 35.6897 31.9253 35.7072 32.0855 35.7335C32.2456 35.7599 32.3926 35.8081 32.5286 35.8805C32.6624 35.9529 32.7721 36.0604 32.8533 36.203C32.9345 36.3456 32.9761 36.5387 32.9761 36.7844C32.9761 37.1858 32.8445 37.4864 32.5834 37.6882C32.3246 37.89 31.9319 37.9888 31.4076 37.9888Z" fill="white"/>
<path d="M35.9053 35.7031H38.3316V36.4029H35.9053V35.7031Z" fill="white"/>
<path d="M43.2278 37.9888C42.8615 37.9888 42.5412 37.9077 42.2669 37.7453C41.9927 37.583 41.7799 37.3548 41.6285 37.0609C41.4772 36.7669 41.4004 36.4247 41.4004 36.032V34.5906C41.4004 34.1958 41.4772 33.8513 41.6285 33.5574C41.7799 33.2634 41.9927 33.0352 42.2669 32.8729C42.5412 32.7106 42.8615 32.6294 43.2278 32.6294C43.5306 32.6294 43.8092 32.6952 44.0593 32.8246C44.3116 32.9541 44.5222 33.1362 44.6911 33.3709C44.86 33.6034 44.9763 33.8777 45.0355 34.1914H44.2808C44.2348 34.0225 44.158 33.8755 44.0505 33.7482C43.943 33.621 43.818 33.5245 43.6732 33.4543C43.5284 33.3841 43.3792 33.349 43.2256 33.349C42.9031 33.349 42.6443 33.463 42.4468 33.6912C42.2516 33.9193 42.1529 34.2199 42.1529 34.5928V36.0342C42.1529 36.4071 42.2516 36.7077 42.4468 36.9336C42.6443 37.1596 42.9031 37.2737 43.2256 37.2737C43.4538 37.2737 43.6688 37.2013 43.8728 37.0565C44.0746 36.9117 44.2106 36.7033 44.2808 36.4312H45.0355C44.9763 36.745 44.86 37.017 44.6889 37.2517C44.5178 37.4843 44.3072 37.6663 44.0571 37.798C43.8092 37.923 43.5328 37.9888 43.2278 37.9888Z" fill="white"/>
<path d="M47.4507 37.989C46.9593 37.989 46.5797 37.8464 46.3099 37.5612C46.0401 37.276 45.9062 36.8746 45.9062 36.3568V35.747C45.9062 35.2336 46.0401 34.8365 46.3099 34.5557C46.5797 34.2749 46.9593 34.1323 47.4507 34.1323C47.9421 34.1323 48.3216 34.2727 48.5915 34.5557C48.8613 34.8365 48.9951 35.2358 48.9951 35.747V36.3678C48.9951 36.8833 48.8613 37.2826 48.5915 37.5656C48.3216 37.8486 47.9421 37.989 47.4507 37.989ZM47.4507 37.2892C47.7074 37.2892 47.907 37.208 48.0474 37.0479C48.1878 36.8877 48.258 36.6596 48.258 36.37V35.7491C48.258 35.4574 48.1878 35.2336 48.0474 35.0735C47.907 34.9133 47.7074 34.8343 47.4507 34.8343C47.1962 34.8343 46.9966 34.9133 46.854 35.0735C46.7114 35.2314 46.6412 35.4574 46.6412 35.7491V36.37C46.6412 36.6618 46.7114 36.8877 46.854 37.0479C46.9966 37.208 47.1962 37.2892 47.4507 37.2892Z" fill="white"/>
<path d="M50.0439 37.9339V34.1847H50.7811V37.9339H50.0439ZM52.2838 37.9339V35.6633C52.2838 35.3979 52.218 35.1939 52.0886 35.0491C51.9591 34.9043 51.7748 34.8319 51.5357 34.8319C51.2944 34.8319 51.1079 34.8955 50.9785 35.0228C50.8469 35.15 50.7811 35.3299 50.7811 35.5602L50.7043 34.8385C50.8205 34.6125 50.9697 34.437 51.1584 34.3142C51.3449 34.1913 51.5511 34.1299 51.777 34.1299C52.1719 34.1299 52.4769 34.2637 52.694 34.5292C52.9112 34.7946 53.0187 35.1719 53.0187 35.6568V37.9317H52.2838V37.9339ZM54.5215 37.9339V35.6633C54.5215 35.3979 54.4535 35.1939 54.3175 35.0491C54.1814 34.9043 53.9884 34.8319 53.7383 34.8319C53.5101 34.8319 53.3324 34.9021 53.2074 35.0425C53.0823 35.1829 53.0187 35.3803 53.0187 35.6348L52.8717 34.9131C52.9924 34.663 53.1482 34.4699 53.3412 34.3361C53.5343 34.2023 53.7471 34.1343 53.9796 34.1343C54.3855 34.1343 54.7014 34.2681 54.9251 34.5335C55.1467 34.799 55.2586 35.1763 55.2586 35.6612V37.9361H54.5215V37.9339Z" fill="white"/>
<path d="M56.377 37.9339V34.1847H57.1141V37.9339H56.377ZM58.6168 37.9339V35.6633C58.6168 35.3979 58.551 35.1939 58.4216 35.0491C58.2921 34.9043 58.1079 34.8319 57.8687 34.8319C57.6274 34.8319 57.4409 34.8955 57.3115 35.0228C57.1799 35.15 57.1141 35.3299 57.1141 35.5602L57.0373 34.8385C57.1536 34.6125 57.3027 34.437 57.4914 34.3142C57.6779 34.1913 57.8841 34.1299 58.1101 34.1299C58.5049 34.1299 58.8099 34.2637 59.0271 34.5292C59.2442 34.7946 59.3517 35.1719 59.3517 35.6568V37.9317H58.6168V37.9339ZM60.8567 37.9339V35.6633C60.8567 35.3979 60.7887 35.1939 60.6527 35.0491C60.5166 34.9043 60.3236 34.8319 60.0735 34.8319C59.8453 34.8319 59.6676 34.9021 59.5426 35.0425C59.4176 35.1829 59.3539 35.3803 59.3539 35.6348L59.2069 34.9131C59.3276 34.663 59.4834 34.4699 59.6764 34.3361C59.8695 34.2023 60.0823 34.1343 60.3148 34.1343C60.7207 34.1343 61.0366 34.2681 61.2603 34.5335C61.4819 34.799 61.5938 35.1763 61.5938 35.6612V37.9361H60.8567V37.9339Z" fill="white"/>
<path d="M63.4507 34.1848V36.4642C63.4507 36.7274 63.5188 36.9292 63.6504 37.0718C63.7842 37.2144 63.9729 37.2868 64.2164 37.2868C64.4599 37.2868 64.6464 37.2232 64.778 37.0938C64.9096 36.9643 64.9754 36.7845 64.9754 36.5497L65.0259 37.3329C64.9579 37.5018 64.8416 37.6532 64.6727 37.787C64.5038 37.9208 64.2844 37.9867 64.0124 37.9867C63.5977 37.9867 63.2774 37.8528 63.0537 37.5874C62.8277 37.3219 62.7158 36.9468 62.7158 36.462V34.1826H63.4507V34.1848ZM64.9754 37.934V34.1848H65.7082V37.934H64.9754Z" fill="white"/>
<path d="M66.8262 37.9339V34.1847H67.5633V37.9339H66.8262ZM69.1033 37.9339V35.6633C69.1033 35.3979 69.0353 35.1939 68.8993 35.0491C68.7633 34.9043 68.5702 34.8319 68.3202 34.8319C68.0788 34.8319 67.8924 34.8955 67.7629 35.0228C67.6313 35.15 67.5655 35.3299 67.5655 35.5602L67.4887 34.8385C67.605 34.6125 67.7542 34.437 67.9428 34.3142C68.1293 34.1913 68.3355 34.1299 68.5615 34.1299C68.9673 34.1299 69.2832 34.2637 69.507 34.5292C69.7286 34.7946 69.8404 35.1719 69.8404 35.6568V37.9317H69.1033V37.9339Z" fill="white"/>
<path d="M70.96 33.4192V32.6821H71.6971V33.4192H70.96ZM70.96 37.9341V34.1849H71.6971V37.9341H70.96Z" fill="white"/>
<path d="M74.3292 37.989C73.8137 37.989 73.4144 37.8464 73.1314 37.5634C72.8484 37.2782 72.708 36.879 72.708 36.3612V35.7426C72.708 35.2292 72.8484 34.8321 73.1314 34.5535C73.4144 34.2727 73.8137 34.1323 74.3292 34.1323C74.6232 34.1323 74.8886 34.185 75.1234 34.2881C75.3603 34.3912 75.5468 34.5404 75.6872 34.7334L75.1563 35.2095C75.0532 35.0888 74.9303 34.9967 74.7877 34.9309C74.6451 34.8651 74.4959 34.8343 74.3402 34.8343C74.055 34.8343 73.8356 34.9133 73.6799 35.0735C73.5241 35.2314 73.4451 35.4552 73.4451 35.7448V36.3634C73.4451 36.6596 73.5241 36.8877 73.6799 37.0501C73.8356 37.2124 74.0572 37.2914 74.3402 37.2914C74.4959 37.2914 74.6451 37.2563 74.7877 37.1861C74.9303 37.1159 75.0532 37.0172 75.1563 36.8899L75.6872 37.4033C75.5468 37.5919 75.3581 37.7367 75.1212 37.8376C74.8843 37.9386 74.621 37.989 74.3292 37.989Z" fill="white"/>
<path d="M77.6992 37.9888C77.2385 37.9888 76.8941 37.8944 76.6638 37.7036C76.4334 37.5127 76.3193 37.2209 76.3193 36.8304C76.3193 36.4575 76.4246 36.1789 76.6352 35.9946C76.8458 35.8103 77.1618 35.7182 77.583 35.7182H78.6491L78.6996 36.3105H77.5873C77.3965 36.3105 77.2539 36.3544 77.1574 36.4378C77.0608 36.5233 77.0126 36.6527 77.0126 36.8304C77.0126 37.0213 77.0762 37.1617 77.2034 37.2538C77.3307 37.346 77.5215 37.3921 77.7782 37.3921C78.0568 37.3921 78.2674 37.3613 78.4056 37.3021C78.546 37.2429 78.614 37.1485 78.614 37.0213L78.6908 37.5478C78.625 37.6487 78.546 37.7321 78.4495 37.7979C78.353 37.8637 78.2433 37.912 78.1182 37.9449C77.9954 37.9734 77.855 37.9888 77.6992 37.9888ZM78.6162 37.9339V35.558C78.6162 35.3123 78.5504 35.1215 78.4188 34.9855C78.2872 34.8494 78.1007 34.7814 77.8616 34.7814C77.7146 34.7814 77.5698 34.8034 77.4272 34.8473C77.2846 34.8911 77.1552 34.9569 77.0433 35.0403L76.5058 34.6718C76.6484 34.5006 76.8349 34.3668 77.0674 34.2725C77.3 34.1781 77.5588 34.1299 77.8418 34.1299C78.3113 34.1299 78.6755 34.2505 78.9321 34.4941C79.1888 34.7376 79.3182 35.0798 79.3182 35.5229V37.9317H78.6162V37.9339Z" fill="white"/>
<path d="M80.1475 34.8498V34.185H81.8367V34.8498H80.1475ZM81.4111 37.954C81.104 37.954 80.8802 37.8684 80.742 37.6973C80.6038 37.5262 80.5336 37.2805 80.5336 36.9602V33.0947H81.2707V36.9668C81.2707 37.0567 81.2882 37.1247 81.3255 37.1774C81.3606 37.2278 81.4155 37.2542 81.4857 37.2542H81.8389V37.954H81.4111Z" fill="white"/>
<path d="M82.8477 33.4192V32.6821H83.5848V33.4192H82.8477ZM82.8477 37.9341V34.1849H83.5848V37.9341H82.8477Z" fill="white"/>
<path d="M86.1431 37.989C85.6517 37.989 85.2721 37.8464 85.0023 37.5612C84.7325 37.276 84.5986 36.8746 84.5986 36.3568V35.747C84.5986 35.2336 84.7325 34.8365 85.0023 34.5557C85.2721 34.2749 85.6517 34.1323 86.1431 34.1323C86.6345 34.1323 87.014 34.2727 87.2838 34.5557C87.5537 34.8365 87.6875 35.2358 87.6875 35.747V36.3678C87.6875 36.8833 87.5537 37.2826 87.2838 37.5656C87.014 37.8486 86.6345 37.989 86.1431 37.989ZM86.1431 37.2892C86.3997 37.2892 86.5994 37.208 86.7398 37.0479C86.8802 36.8877 86.9504 36.6596 86.9504 36.37V35.7491C86.9504 35.4574 86.8802 35.2336 86.7398 35.0735C86.5994 34.9133 86.3997 34.8343 86.1431 34.8343C85.8886 34.8343 85.689 34.9133 85.5464 35.0735C85.4038 35.2314 85.3336 35.4574 85.3336 35.7491V36.37C85.3336 36.6618 85.4038 36.8877 85.5464 37.0479C85.689 37.208 85.8864 37.2892 86.1431 37.2892Z" fill="white"/>
<path d="M88.7363 37.9339V34.1847H89.4734V37.9339H88.7363ZM91.0113 37.9339V35.6633C91.0113 35.3979 90.9433 35.1939 90.8073 35.0491C90.6713 34.9043 90.4782 34.8319 90.2281 34.8319C89.9868 34.8319 89.8003 34.8955 89.6709 35.0228C89.5393 35.15 89.4734 35.3299 89.4734 35.5602L89.3967 34.8385C89.5129 34.6125 89.6621 34.437 89.8508 34.3142C90.0372 34.1913 90.2435 34.1299 90.4694 34.1299C90.8753 34.1299 91.1912 34.2637 91.4149 34.5292C91.6365 34.7946 91.7484 35.1719 91.7484 35.6568V37.9317H91.0113V37.9339Z" fill="white"/>
<path d="M94.8545 35.7031H97.2808V36.4029H94.8545V35.7031Z" fill="white"/>
<path d="M102.179 37.9888C101.813 37.9888 101.492 37.9077 101.218 37.7453C100.944 37.583 100.731 37.3548 100.58 37.0609C100.428 36.7669 100.352 36.4247 100.352 36.032V34.5906C100.352 34.1958 100.428 33.8513 100.58 33.5574C100.731 33.2634 100.944 33.0352 101.218 32.8729C101.492 32.7106 101.813 32.6294 102.179 32.6294C102.482 32.6294 102.76 32.6952 103.01 32.8246C103.263 32.9541 103.473 33.1362 103.642 33.3709C103.811 33.6034 103.927 33.8777 103.987 34.1914H103.232C103.186 34.0225 103.109 33.8755 103.002 33.7482C102.894 33.621 102.769 33.5245 102.624 33.4543C102.48 33.3841 102.33 33.349 102.177 33.349C101.854 33.349 101.595 33.463 101.398 33.6912C101.203 33.9193 101.104 34.2199 101.104 34.5928V36.0342C101.104 36.4071 101.203 36.7077 101.398 36.9336C101.595 37.1596 101.854 37.2737 102.177 37.2737C102.405 37.2737 102.62 37.2013 102.824 37.0565C103.026 36.9117 103.162 36.7033 103.232 36.4312H103.987C103.927 36.745 103.811 37.017 103.64 37.2517C103.469 37.4843 103.258 37.6663 103.008 37.798C102.758 37.923 102.482 37.9888 102.179 37.9888Z" fill="white"/>
<path d="M106.4 37.989C105.908 37.989 105.529 37.8464 105.259 37.5612C104.989 37.276 104.855 36.8746 104.855 36.3568V35.747C104.855 35.2336 104.989 34.8365 105.259 34.5557C105.529 34.2749 105.908 34.1323 106.4 34.1323C106.891 34.1323 107.271 34.2727 107.541 34.5557C107.811 34.8365 107.944 35.2358 107.944 35.747V36.3678C107.944 36.8833 107.811 37.2826 107.541 37.5656C107.271 37.8486 106.891 37.989 106.4 37.989ZM106.4 37.2892C106.657 37.2892 106.856 37.208 106.997 37.0479C107.137 36.8877 107.207 36.6596 107.207 36.37V35.7491C107.207 35.4574 107.137 35.2336 106.997 35.0735C106.856 34.9133 106.657 34.8343 106.4 34.8343C106.145 34.8343 105.946 34.9133 105.803 35.0735C105.661 35.2314 105.59 35.4574 105.59 35.7491V36.37C105.59 36.6618 105.661 36.8877 105.803 37.0479C105.946 37.208 106.145 37.2892 106.4 37.2892Z" fill="white"/>
<path d="M108.993 37.9339V34.1847H109.73V37.9339H108.993ZM111.268 37.9339V35.6633C111.268 35.3979 111.2 35.1939 111.064 35.0491C110.928 34.9043 110.735 34.8319 110.485 34.8319C110.244 34.8319 110.057 34.8955 109.928 35.0228C109.796 35.15 109.73 35.3299 109.73 35.5602L109.653 34.8385C109.77 34.6125 109.919 34.437 110.108 34.3142C110.294 34.1913 110.5 34.1299 110.726 34.1299C111.132 34.1299 111.448 34.2637 111.672 34.5292C111.893 34.7946 112.005 35.1719 112.005 35.6568V37.9317H111.268V37.9339Z" fill="white"/>
<path d="M114.452 37.9888C114.12 37.9888 113.818 37.9405 113.548 37.8418C113.278 37.7453 113.034 37.5983 112.819 37.403L113.256 36.8655C113.46 37.0191 113.662 37.1354 113.861 37.2122C114.061 37.2889 114.256 37.3284 114.452 37.3284C114.743 37.3284 114.96 37.2824 115.107 37.1924C115.252 37.1025 115.327 36.9665 115.327 36.7866C115.327 36.6462 115.279 36.5474 115.18 36.4904C115.083 36.4334 114.954 36.3939 114.798 36.3763C114.64 36.3588 114.471 36.3434 114.291 36.3303C114.14 36.3193 113.989 36.2995 113.839 36.2732C113.69 36.2469 113.554 36.203 113.431 36.1372C113.309 36.0714 113.21 35.9727 113.137 35.8432C113.065 35.7138 113.028 35.5383 113.028 35.3189C113.028 34.9218 113.148 34.6235 113.392 34.426C113.635 34.2286 113.997 34.1299 114.48 34.1299C114.774 34.1299 115.046 34.1694 115.301 34.2483C115.555 34.3273 115.79 34.4502 116.011 34.6125L115.566 35.15C115.377 35.0293 115.193 34.9394 115.011 34.8802C114.829 34.8209 114.651 34.7902 114.478 34.7902C114.228 34.7902 114.039 34.8319 113.914 34.9175C113.789 35.003 113.725 35.1303 113.725 35.3014C113.725 35.4154 113.769 35.4966 113.855 35.5449C113.94 35.5953 114.057 35.6261 114.197 35.6414C114.34 35.6568 114.491 35.6699 114.656 35.6809C114.811 35.6897 114.969 35.7072 115.129 35.7335C115.29 35.7599 115.437 35.8081 115.573 35.8805C115.709 35.9529 115.816 36.0604 115.897 36.203C115.978 36.3456 116.02 36.5387 116.02 36.7844C116.02 37.1858 115.888 37.4864 115.627 37.6882C115.369 37.89 114.976 37.9888 114.452 37.9888Z" fill="white"/>
<path d="M116.961 33.4192V32.6821H117.698V33.4192H116.961ZM116.961 37.9341V34.1849H117.698V37.9341H116.961Z" fill="white"/>
<path d="M120.007 37.9996C119.592 37.9996 119.272 37.8658 119.048 37.6004C118.822 37.3349 118.71 36.9598 118.71 36.475V35.6479C118.71 35.1609 118.82 34.7857 119.041 34.5203C119.261 34.2548 119.572 34.121 119.971 34.121C120.193 34.121 120.395 34.1781 120.579 34.2943C120.763 34.4106 120.913 34.5729 121.024 34.7814L120.948 35.547C120.948 35.389 120.919 35.253 120.86 35.1389C120.803 35.0249 120.719 34.9393 120.61 34.8801C120.5 34.8208 120.366 34.7923 120.211 34.7923C119.967 34.7923 119.778 34.8691 119.645 35.0205C119.511 35.1718 119.445 35.3846 119.445 35.6589V36.475C119.445 36.747 119.513 36.9576 119.645 37.1046C119.778 37.2516 119.967 37.3262 120.211 37.3262C120.366 37.3262 120.5 37.2954 120.61 37.234C120.719 37.1726 120.803 37.0848 120.86 36.9686C120.917 36.8523 120.948 36.7141 120.948 36.5539L120.998 37.3459C120.93 37.5148 120.814 37.6662 120.649 37.8C120.485 37.9338 120.27 37.9996 120.007 37.9996ZM120.948 37.9338V32.6841H121.685V37.936H120.948V37.9338Z" fill="white"/>
<path d="M124.339 37.989C123.817 37.989 123.411 37.8442 123.126 37.5524C122.839 37.2607 122.696 36.846 122.696 36.3108V35.8874C122.696 35.3279 122.834 34.8958 123.109 34.5908C123.385 34.2859 123.773 34.1323 124.274 34.1323C124.745 34.1323 125.112 34.3056 125.371 34.6523C125.629 34.9989 125.759 35.4859 125.759 36.1111V36.3568H123.232V35.7645H125.059C125.037 35.4618 124.958 35.2248 124.822 35.0537C124.686 34.8826 124.504 34.797 124.276 34.797C123.999 34.797 123.784 34.8892 123.629 35.0713C123.475 35.2534 123.398 35.5122 123.398 35.8479V36.3239C123.398 36.6354 123.482 36.8724 123.646 37.0391C123.811 37.2058 124.043 37.2892 124.342 37.2892C124.491 37.2892 124.64 37.2585 124.787 37.1992C124.934 37.14 125.066 37.0545 125.18 36.947L125.664 37.4318C125.478 37.6095 125.272 37.7477 125.039 37.8464C124.807 37.9407 124.574 37.989 124.339 37.989Z" fill="white"/>
<path d="M126.77 37.9339V34.1847H127.507V37.9339H126.77ZM128.832 35.0732C128.766 34.9942 128.685 34.9328 128.586 34.8933C128.487 34.8516 128.373 34.8319 128.244 34.8319C128.009 34.8319 127.829 34.8955 127.7 35.025C127.57 35.1544 127.507 35.3321 127.507 35.5602L127.43 34.8385C127.544 34.6169 127.691 34.4436 127.875 34.3185C128.059 34.1935 128.261 34.1299 128.483 34.1299C128.654 34.1299 128.808 34.154 128.948 34.2045C129.086 34.2527 129.207 34.3273 129.312 34.4239L128.832 35.0732Z" fill="white"/>
<path d="M131.127 37.9888C130.666 37.9888 130.322 37.8944 130.091 37.7036C129.861 37.5127 129.747 37.2209 129.747 36.8304C129.747 36.4575 129.852 36.1789 130.063 35.9946C130.274 35.8103 130.589 35.7182 131.011 35.7182H132.077L132.127 36.3105H131.015C130.824 36.3105 130.682 36.3544 130.585 36.4378C130.489 36.5233 130.44 36.6527 130.44 36.8304C130.44 37.0213 130.504 37.1617 130.631 37.2538C130.758 37.346 130.949 37.3921 131.206 37.3921C131.485 37.3921 131.695 37.3613 131.833 37.3021C131.974 37.2429 132.042 37.1485 132.042 37.0213L132.119 37.5478C132.053 37.6487 131.974 37.7321 131.877 37.7979C131.781 37.8637 131.671 37.912 131.546 37.9449C131.423 37.9734 131.283 37.9888 131.127 37.9888ZM132.044 37.9339V35.558C132.044 35.3123 131.978 35.1215 131.847 34.9855C131.715 34.8494 131.528 34.7814 131.289 34.7814C131.142 34.7814 130.998 34.8034 130.855 34.8473C130.712 34.8911 130.583 34.9569 130.471 35.0403L129.934 34.6718C130.076 34.5006 130.263 34.3668 130.495 34.2725C130.728 34.1781 130.987 34.1299 131.27 34.1299C131.739 34.1299 132.103 34.2505 132.36 34.4941C132.617 34.7376 132.746 35.0798 132.746 35.5229V37.9317H132.044V37.9339Z" fill="white"/>
<path d="M133.575 34.8498V34.185H135.264V34.8498H133.575ZM134.839 37.954C134.532 37.954 134.308 37.8684 134.17 37.6973C134.032 37.5262 133.961 37.2805 133.961 36.9602V33.0947H134.698V36.9668C134.698 37.0567 134.716 37.1247 134.753 37.1774C134.788 37.2278 134.843 37.2542 134.913 37.2542H135.267V37.954H134.839Z" fill="white"/>
<path d="M136.275 33.4192V32.6821H137.013V33.4192H136.275ZM136.275 37.9341V34.1849H137.013V37.9341H136.275Z" fill="white"/>
<path d="M139.571 37.989C139.079 37.989 138.7 37.8464 138.43 37.5612C138.16 37.276 138.026 36.8746 138.026 36.3568V35.747C138.026 35.2336 138.16 34.8365 138.43 34.5557C138.7 34.2749 139.079 34.1323 139.571 34.1323C140.062 34.1323 140.442 34.2727 140.712 34.5557C140.981 34.8365 141.115 35.2358 141.115 35.747V36.3678C141.115 36.8833 140.981 37.2826 140.712 37.5656C140.442 37.8486 140.062 37.989 139.571 37.989ZM139.571 37.2892C139.827 37.2892 140.027 37.208 140.168 37.0479C140.308 36.8877 140.378 36.6596 140.378 36.37V35.7491C140.378 35.4574 140.308 35.2336 140.168 35.0735C140.027 34.9133 139.827 34.8343 139.571 34.8343C139.316 34.8343 139.117 34.9133 138.974 35.0735C138.831 35.2314 138.761 35.4574 138.761 35.7491V36.37C138.761 36.6618 138.831 36.8877 138.974 37.0479C139.117 37.208 139.314 37.2892 139.571 37.2892Z" fill="white"/>
<path d="M142.164 37.9339V34.1847H142.901V37.9339H142.164ZM144.439 37.9339V35.6633C144.439 35.3979 144.371 35.1939 144.235 35.0491C144.099 34.9043 143.906 34.8319 143.656 34.8319C143.415 34.8319 143.228 34.8955 143.099 35.0228C142.967 35.15 142.901 35.3299 142.901 35.5602L142.824 34.8385C142.941 34.6125 143.09 34.437 143.279 34.3142C143.465 34.1913 143.671 34.1299 143.897 34.1299C144.303 34.1299 144.619 34.2637 144.843 34.5292C145.064 34.7946 145.176 35.1719 145.176 35.6568V37.9317H144.439V37.9339Z" fill="white"/>
</svg>
