<svg width="24" height="24" viewBox="0 0 24 24" fill="none" xmlns="http://www.w3.org/2000/svg">
<mask id="path-1-inside-1_4029_6105" fill="white">
<path d="M4.74405 12.6168L7.87298 14.852L6.53203 15.299L11.449 18.4275L11.449 22.8974L0.721233 15.299L4.74405 12.6168Z"/>
</mask>
<path d="M4.74405 12.6168L7.03765 9.40611L4.82135 7.82287L2.55515 9.33383L4.74405 12.6168ZM11.449 18.4275L15.3948 18.4275L15.3948 16.2613L13.5672 15.0985L11.449 18.4275ZM11.449 22.8974L9.16834 26.1173L15.3948 30.5274L15.3948 22.8974L11.449 22.8974ZM0.721232 15.299L-1.46766 12.016L-6.24421 15.2007L-1.55941 18.5189L0.721232 15.299ZM7.87298 14.852L9.12075 18.5953L16.4713 16.1451L10.1666 11.6413L7.87298 14.852ZM6.53203 15.299L5.28426 11.5557L-2.58098 14.1774L4.41384 18.628L6.53203 15.299ZM7.50319 18.4275L7.50319 22.8974L15.3948 22.8974L15.3948 18.4275L7.50319 18.4275ZM13.7296 19.6774L3.00188 12.0791L-1.55941 18.5189L9.16834 26.1173L13.7296 19.6774ZM2.91013 18.582L6.93295 15.8998L2.55515 9.33383L-1.46766 12.016L2.91013 18.582ZM2.45044 15.8275L5.57937 18.0627L10.1666 11.6413L7.03765 9.40611L2.45044 15.8275ZM6.62521 11.1087L5.28426 11.5557L7.7798 19.0423L9.12075 18.5953L6.62521 11.1087ZM4.41384 18.628L9.3308 21.7566L13.5672 15.0985L8.65021 11.9699L4.41384 18.628Z" fill="url(#paint0_linear_4029_6105)" mask="url(#path-1-inside-1_4029_6105)"/>
<mask id="path-3-inside-2_4029_6105" fill="white">
<path d="M19.7696 13.024L16.6407 15.2592L17.9816 15.7062L13.0647 18.8347L13.0647 23.3046L23.7924 15.7062L19.7696 13.024Z"/>
</mask>
<path d="M19.7696 13.024L17.476 9.81334L19.6923 8.2301L21.9585 9.74106L19.7696 13.024ZM13.0647 18.8347L9.1189 18.8347L9.1189 16.6685L10.9465 15.5057L13.0647 18.8347ZM13.0647 23.3046L15.3453 26.5245L9.1189 30.9346L9.1189 23.3046L13.0647 23.3046ZM23.7924 15.7062L25.9813 12.4232L30.7579 15.6079L26.0731 18.9261L23.7924 15.7062ZM16.6407 15.2592L15.3929 19.0025L8.04238 16.5524L14.3471 12.0485L16.6407 15.2592ZM17.9816 15.7062L19.2294 11.9629L27.0947 14.5847L20.0998 19.0353L17.9816 15.7062ZM17.0105 18.8347L17.0105 23.3046L9.1189 23.3046L9.1189 18.8347L17.0105 18.8347ZM10.784 20.0847L21.5118 12.4863L26.0731 18.9261L15.3453 26.5245L10.784 20.0847ZM21.6035 18.9892L17.5807 16.307L21.9585 9.74106L25.9813 12.4232L21.6035 18.9892ZM22.0632 16.2348L18.9343 18.4699L14.3471 12.0485L17.476 9.81334L22.0632 16.2348ZM17.8885 11.5159L19.2294 11.9629L16.7339 19.4495L15.3929 19.0025L17.8885 11.5159ZM20.0998 19.0353L15.1829 22.1638L10.9465 15.5057L15.8635 12.3772L20.0998 19.0353Z" fill="url(#paint1_linear_4029_6105)" mask="url(#path-3-inside-2_4029_6105)"/>
<path d="M4.62224 8.52492L12.2602 2.97989L20.0246 8.52455L12.2597 13.6127L4.62224 8.52492Z" stroke="#234EEC" stroke-width="3.94579"/>
<defs>
<linearGradient id="paint0_linear_4029_6105" x1="8.67284" y1="15.279" x2="6.00857" y2="19.2111" gradientUnits="userSpaceOnUse">
<stop stop-color="#2359E6"/>
<stop offset="0.494792" stop-color="#1F91ED"/>
<stop offset="1" stop-color="#1ACAF4"/>
</linearGradient>
<linearGradient id="paint1_linear_4029_6105" x1="15.8408" y1="15.6862" x2="18.5051" y2="19.6184" gradientUnits="userSpaceOnUse">
<stop stop-color="#2359E6"/>
<stop offset="0.494792" stop-color="#1F91ED"/>
<stop offset="1" stop-color="#1ACAF4"/>
</linearGradient>
</defs>
</svg>
