<svg width="14" height="14" viewBox="0 0 14 14" fill="none" xmlns="http://www.w3.org/2000/svg">
  <path
    d="M6.99984 13.6666C10.6732 13.6666 13.6665 10.6733 13.6665 6.99996C13.6665 3.32663 10.6732 0.333294 6.99984 0.333293C3.32651 0.333293 0.333173 3.32663 0.333172 6.99996C0.333172 10.6733 3.3265 13.6666 6.99984 13.6666ZM7.49984 9.66663C7.49984 9.93996 7.27317 10.1666 6.99984 10.1666C6.7265 10.1666 6.49984 9.93996 6.49984 9.66663L6.49984 6.33329C6.49984 6.05996 6.72651 5.83329 6.99984 5.83329C7.27317 5.83329 7.49984 6.05996 7.49984 6.33329L7.49984 9.66663ZM6.38651 4.07996C6.41984 3.99329 6.4665 3.92663 6.52651 3.85996C6.59317 3.79996 6.66651 3.75329 6.74651 3.71996C6.82651 3.68663 6.91317 3.66663 6.99984 3.66663C7.08651 3.66663 7.17317 3.68663 7.25317 3.71996C7.33317 3.75329 7.40651 3.79996 7.47317 3.85996C7.53317 3.92663 7.57984 3.99329 7.61317 4.07996C7.64651 4.15996 7.66651 4.24663 7.66651 4.33329C7.66651 4.41996 7.64651 4.50663 7.61317 4.58663C7.57984 4.66663 7.53317 4.73996 7.47317 4.80663C7.4065 4.86663 7.33317 4.91329 7.25317 4.94663C7.09317 5.01329 6.9065 5.01329 6.74651 4.94663C6.66651 4.91329 6.59317 4.86663 6.52651 4.80663C6.4665 4.73996 6.41984 4.66663 6.3865 4.58663C6.35317 4.50663 6.33317 4.41996 6.33317 4.33329C6.33317 4.24663 6.35317 4.15996 6.38651 4.07996Z"
    fill="#D64A40"
  />
</svg>