<svg width="40" height="40" viewBox="0 0 40 40" fill="none" xmlns="http://www.w3.org/2000/svg">
<rect width="40" height="40" rx="4" fill="#0C66E4"/>
<mask id="path-2-inside-1_831_5350" fill="white">
<path d="M11.5346 20.7199L15.185 23.3276L13.6205 23.8491L19.357 27.499L19.357 32.7138L6.84128 23.8491L11.5346 20.7199Z"/>
</mask>
<path d="M11.5346 20.7199L14.2104 16.9741L11.6247 15.1269L8.98085 16.8897L11.5346 20.7199ZM19.357 27.499L23.9604 27.499L23.9604 24.9718L21.8282 23.6151L19.357 27.499ZM19.357 32.7138L16.6962 36.4704L23.9604 41.6156L23.9604 32.7138L19.357 32.7138ZM6.84128 23.8491L4.28756 20.0189L-1.28508 23.7344L4.18052 27.6057L6.84128 23.8491ZM15.185 23.3276L16.6407 27.6948L25.2163 24.8362L17.8609 19.5818L15.185 23.3276ZM13.6205 23.8491L12.1648 19.4819L2.9887 22.5406L11.1493 27.733L13.6205 23.8491ZM14.7536 27.499L14.7536 32.7138L23.9604 32.7138L23.9604 27.499L14.7536 27.499ZM22.0177 28.9573L9.50203 20.0925L4.18052 27.6057L16.6962 36.4704L22.0177 28.9573ZM9.39499 27.6792L14.0883 24.55L8.98085 16.8897L4.28756 20.0189L9.39499 27.6792ZM8.85869 24.4657L12.5091 27.0734L17.8609 19.5818L14.2104 16.9741L8.85869 24.4657ZM13.7292 18.9604L12.1648 19.4819L15.0763 28.2163L16.6407 27.6948L13.7292 18.9604ZM11.1493 27.733L16.8858 31.3829L21.8282 23.6151L16.0917 19.9652L11.1493 27.733Z" fill="white" mask="url(#path-2-inside-1_831_5350)"/>
<mask id="path-4-inside-2_831_5350" fill="white">
<path d="M29.0641 21.1947L25.4137 23.8024L26.9781 24.3239L21.2416 27.9739L21.2416 33.1887L33.7574 24.3239L29.0641 21.1947Z"/>
</mask>
<path d="M29.0641 21.1947L26.3882 17.4489L28.9739 15.6018L31.6178 17.3646L29.0641 21.1947ZM21.2416 27.9739L16.6382 27.9739L16.6382 25.4466L18.7704 24.09L21.2416 27.9739ZM21.2416 33.1887L23.9024 36.9453L16.6382 42.0904L16.6382 33.1887L21.2416 33.1887ZM33.7574 24.3239L36.3111 20.4938L41.8837 24.2093L36.4181 28.0805L33.7574 24.3239ZM25.4137 23.8024L23.9579 28.1696L15.3823 25.3111L22.7378 20.0566L25.4137 23.8024ZM26.9781 24.3239L28.4338 19.9567L37.6099 23.0154L29.4493 28.2078L26.9781 24.3239ZM25.8451 27.9739L25.8451 33.1887L16.6382 33.1887L16.6382 27.9739L25.8451 27.9739ZM18.5809 29.4321L31.0966 20.5673L36.4181 28.0805L23.9024 36.9453L18.5809 29.4321ZM31.2036 28.1541L26.5104 25.0249L31.6178 17.3646L36.3111 20.4938L31.2036 28.1541ZM31.7399 24.9405L28.0895 27.5483L22.7378 20.0566L26.3882 17.4489L31.7399 24.9405ZM26.8694 19.4352L28.4338 19.9567L25.5224 28.6911L23.9579 28.1696L26.8694 19.4352ZM29.4493 28.2078L23.7129 31.8578L18.7704 24.09L24.5069 20.44L29.4493 28.2078Z" fill="white" mask="url(#path-4-inside-2_831_5350)"/>
<path d="M11.3929 15.9456L20.3039 9.47636L29.3622 15.9451L20.3032 21.8813L11.3929 15.9456Z" stroke="white" stroke-width="4.60342"/>
</svg>
