<svg width="28" height="28" viewBox="0 0 28 28" fill="none" xmlns="http://www.w3.org/2000/svg">
<path d="M21.8938 14.7657C21.5071 18.7863 18.1218 21.9292 13.9999 21.9292C9.87804 21.9292 6.49275 18.7863 6.10604 14.7657H0.0229492C0.421941 22.1409 6.52651 28 13.9999 28C21.4733 28 27.5779 22.1409 27.9769 14.7657H21.8938Z" fill="#0C66E4"/>
<path d="M21.8938 14.7657C21.5071 18.7863 18.1218 21.9292 13.9999 21.9292C9.878 21.9292 6.49271 18.7863 6.10599 14.7657H6.09985C6.49271 20.4652 11.2376 24.9646 17.0353 24.9646C22.8329 24.9646 27.5779 20.4652 27.9707 14.7657H21.8938Z" fill="#0C66E4"/>
<path d="M6.10604 13.2312C6.49275 9.21057 9.87804 6.06774 13.9999 6.06774C18.1218 6.06774 21.5071 9.21057 21.8938 13.2312H27.9769C27.581 5.85904 21.4764 0 13.9999 0C6.52651 0 0.421941 5.85904 0.0229492 13.2312H6.10604Z" fill="#0C66E4"/>
<path d="M6.10611 13.2312C6.49282 9.21056 9.87811 6.06774 14 6.06774C18.1219 6.06774 21.5072 9.21056 21.8939 13.2312H21.9031C21.5103 7.5348 16.7653 3.0354 10.9677 3.0354C5.17001 3.0354 0.42508 7.5348 0.0322266 13.2312H6.10611Z" fill="#0C66E4"/>
</svg>
