<svg width="26" height="26" viewBox="0 0 26 26" fill="none" xmlns="http://www.w3.org/2000/svg">
<path d="M21.6885 21.6518C24.0383 19.3174 25.3557 16.1554 25.3511 12.8605C25.3486 12.6571 25.2653 12.4629 25.1191 12.32C24.9728 12.177 24.7757 12.0969 24.5702 12.0969C24.3645 12.0969 24.1674 12.177 24.0211 12.32C23.8749 12.4629 23.7916 12.6571 23.7891 12.8605C23.7924 15.748 22.6374 18.5189 20.5778 20.5643C19.5781 21.5802 18.3828 22.3875 17.0625 22.9389C15.7423 23.4901 14.3239 23.7741 12.891 23.7741C11.4581 23.7741 10.0397 23.4901 8.71949 22.9389C7.39929 22.3875 6.20402 21.5802 5.20421 20.5643C3.14744 18.5169 1.99299 15.7471 1.99299 12.86C1.99299 9.97289 3.14744 7.20311 5.20421 5.15562C6.1982 4.14762 7.38449 3.3449 8.69432 2.79403C10.0041 2.24316 11.4114 1.95509 12.8346 1.94652C13.1385 1.95593 13.4266 2.08248 13.6376 2.29914C13.8485 2.5158 13.9656 2.80545 13.9638 3.10632C13.962 3.40719 13.8416 3.69547 13.6281 3.9097C13.4146 4.12392 13.125 4.24712 12.821 4.25304C12.7929 4.2531 12.7647 4.25465 12.7368 4.25767C10.5716 4.32668 8.51717 5.22138 7.00308 6.75471C5.40409 8.34768 4.50667 10.5019 4.50667 12.7472C4.50667 14.9926 5.40409 17.1468 7.00308 18.7398C7.78424 19.5317 8.71754 20.161 9.74809 20.5906C10.7786 21.0202 11.8857 21.2415 13.0039 21.2415C14.1221 21.2415 15.2291 21.0202 16.2597 20.5906C17.2901 20.161 18.2235 19.5317 19.0046 18.7398C20.6061 17.1485 21.5039 14.9932 21.5007 12.7472C21.504 12.3935 21.4364 12.0425 21.3019 11.7147C21.1673 11.387 20.9685 11.0888 20.7169 10.8375C20.4652 10.5862 20.1658 10.3867 19.8359 10.2506C19.5059 10.1145 19.152 10.0444 18.7945 10.0444C18.4369 10.0444 18.083 10.1145 17.7531 10.2506C17.4231 10.3867 17.1237 10.5862 16.8721 10.8375C16.6204 11.0888 16.4216 11.387 16.287 11.7147C16.1525 12.0425 16.0849 12.3935 16.0882 12.7472C16.0882 12.7698 16.0897 12.791 16.0916 12.8127C16.0897 12.8343 16.0882 12.856 16.0882 12.8781C16.0934 13.4948 15.9132 14.0992 15.5706 14.6145C15.2281 15.1298 14.7386 15.5327 14.1642 15.7723C13.5899 16.0117 12.9566 16.077 12.3447 15.9598C11.7328 15.8425 11.1699 15.5481 10.7274 15.1138C10.2849 14.6794 9.98275 14.1248 9.85928 13.5202C9.73581 12.9156 9.79659 12.2884 10.0339 11.7181C10.2712 11.1477 10.6744 10.66 11.1922 10.3168C11.7101 9.9736 12.3193 9.79036 12.9425 9.79034C13.0459 9.79158 13.1485 9.7725 13.2443 9.73421C13.3402 9.69592 13.4274 9.63918 13.5009 9.56729C13.5744 9.49539 13.6329 9.40977 13.6727 9.31537C13.7126 9.22099 13.7331 9.11971 13.7331 9.01742C13.7331 8.91512 13.7126 8.81385 13.6727 8.71946C13.6329 8.62506 13.5744 8.53944 13.5009 8.46755C13.4274 8.39565 13.3402 8.33891 13.2443 8.30062C13.1485 8.26234 13.0459 8.24325 12.9425 8.24449C12.0176 8.24957 11.1149 8.52566 10.3484 9.03789C9.58179 9.55013 8.98571 10.2756 8.6353 11.1227C8.28491 11.9699 8.19589 12.9008 8.37948 13.7979C8.56309 14.6951 9.01106 15.5183 9.66692 16.1638C10.3228 16.8092 11.1571 17.248 12.0647 17.4247C12.9722 17.6013 13.9124 17.5081 14.7664 17.1566C15.6204 16.8051 16.3502 16.2113 16.8635 15.4498C17.3769 14.6883 17.6507 13.7934 17.6507 12.8781C17.6507 12.8555 17.6493 12.8343 17.6474 12.8127C17.6493 12.791 17.6507 12.7693 17.6507 12.7472C17.6477 12.5967 17.675 12.447 17.7312 12.3069C17.7873 12.1669 17.8712 12.0393 17.9776 11.9319C18.0842 11.8242 18.2114 11.7387 18.3517 11.6804C18.492 11.6221 18.6428 11.5921 18.7949 11.5921C18.9471 11.5921 19.0979 11.6221 19.2382 11.6804C19.3785 11.7387 19.5057 11.8242 19.6122 11.9319C19.7187 12.0393 19.8026 12.1669 19.8587 12.3069C19.9148 12.447 19.9422 12.5967 19.9391 12.7472C19.9412 14.586 19.2057 16.3503 17.8942 17.6528C17.2583 18.2993 16.498 18.8131 15.6581 19.164C14.8182 19.5149 13.9158 19.6956 13.0041 19.6956C12.0925 19.6956 11.1901 19.5149 10.3502 19.164C9.51032 18.8131 8.74999 18.2993 8.1141 17.6528C6.80436 16.3492 6.06919 14.5856 6.06919 12.7472C6.06919 10.9089 6.80436 9.1453 8.1141 7.84171C8.75049 7.196 9.51084 6.68268 10.3505 6.33188C11.1902 5.98106 12.0922 5.79986 13.0036 5.79889C13.0737 5.7987 13.1435 5.78914 13.2111 5.77047C13.876 5.66955 14.4797 5.32924 14.9067 4.81483C15.3336 4.30041 15.5536 3.64811 15.5244 2.98306C15.4952 2.318 15.2188 1.68703 14.7485 1.21119C14.2781 0.735335 13.6468 0.448113 12.9756 0.404619C12.9476 0.401596 12.9193 0.400052 12.891 0.399994C12.8753 0.399994 12.8597 0.399994 12.844 0.399994C12.8362 0.399994 12.8287 0.399994 12.8212 0.399994C12.8136 0.399994 12.8059 0.400896 12.7984 0.401121C11.1747 0.413758 9.56958 0.744343 8.0756 1.37382C6.58162 2.00328 5.22834 2.9192 4.09375 4.06874C1.7478 6.40559 0.431152 9.56591 0.431152 12.86C0.431152 16.1541 1.7478 19.3143 4.09375 21.6512C5.23882 22.8124 6.60706 23.7353 8.11791 24.3653C9.62877 24.9953 11.2517 25.32 12.8913 25.32C14.5308 25.32 20.1776 25.95 21.6885 25.32C23.1994 24.69 20.5434 22.813 21.6885 21.6518Z" fill="#0C66E4"/>
</svg>
