<svg width="78" height="77" viewBox="0 0 78 77" fill="none" xmlns="http://www.w3.org/2000/svg">
<path d="M97.7363 53.5791C107.807 43.5746 113.453 30.0233 113.433 15.9021C113.422 15.0305 113.065 14.1981 112.439 13.5856C111.812 12.9727 110.967 12.6295 110.086 12.6295C109.205 12.6295 108.36 12.9727 107.733 13.5856C107.107 14.1981 106.749 15.0305 106.739 15.9021C106.753 28.2773 101.803 40.1525 92.9762 48.9186C88.6914 53.2721 83.5689 56.7323 77.9105 59.0952C72.2527 61.4576 66.1737 62.6748 60.0327 62.6748C53.8917 62.6748 47.8128 61.4576 42.1548 59.0952C36.4967 56.7323 31.3742 53.2721 27.0893 48.9186C18.2745 40.1438 13.3269 28.2734 13.3269 15.9002C13.3269 3.52668 18.2745 -8.34378 27.0893 -17.1187C31.3492 -21.4388 36.4333 -24.879 42.0469 -27.2399C47.6604 -29.6007 53.6917 -30.8353 59.791 -30.8721C61.0932 -30.8317 62.328 -30.2894 63.2322 -29.3608C64.1363 -28.4323 64.638 -27.1909 64.6302 -25.9014C64.6228 -24.612 64.1065 -23.3765 63.1916 -22.4584C62.2767 -21.5403 61.0356 -21.0123 59.7328 -20.9869C59.6122 -20.9867 59.4915 -20.9801 59.3719 -20.9671C50.0924 -20.6714 41.2876 -16.8369 34.7987 -10.2655C27.9459 -3.43849 24.0998 5.79385 24.0998 15.4168C24.0998 25.0399 27.9459 34.2719 34.7987 41.0991C38.1465 44.493 42.1464 47.1899 46.563 49.0312C50.9796 50.8725 55.724 51.821 60.5163 51.821C65.3086 51.821 70.0531 50.8725 74.4698 49.0312C78.886 47.1899 82.886 44.493 86.234 41.0991C93.0974 34.2792 96.945 25.0423 96.9313 15.4168C96.9455 13.9008 96.6558 12.3965 96.0795 10.9917C95.5026 9.58717 94.6507 8.30933 93.5722 7.23231C92.4936 6.15524 91.2104 5.30029 89.7963 4.71687C88.3822 4.1334 86.8655 3.83301 85.3332 3.83301C83.8009 3.83301 82.2842 4.1334 80.8701 4.71687C79.456 5.30029 78.1728 6.15524 77.0943 7.23231C76.0158 8.30933 75.1639 9.58717 74.587 10.9917C74.0106 12.3965 73.721 13.9008 73.7351 15.4168C73.7351 15.5135 73.7415 15.6043 73.7493 15.6971C73.7415 15.79 73.7351 15.8828 73.7351 15.9775C73.7571 18.6208 72.9849 21.2109 71.5165 23.4195C70.0487 25.6277 67.9507 27.3544 65.4894 28.3812C63.028 29.4074 60.3136 29.6873 57.6915 29.1851C55.069 28.6823 52.6566 27.4206 50.7601 25.5591C48.8637 23.6975 47.5687 21.3206 47.0395 18.7295C46.5104 16.1385 46.7709 13.4503 47.788 11.0062C48.8051 8.56172 50.5329 6.47153 52.7522 5.00063C54.9716 3.52973 57.5826 2.74444 60.2535 2.74434C60.6966 2.74966 61.1362 2.66787 61.547 2.5038C61.9578 2.33968 62.3315 2.09653 62.6465 1.78841C62.9616 1.48029 63.2122 1.11333 63.3826 0.708775C63.5536 0.304264 63.6415 -0.129784 63.6415 -0.568184C63.6415 -1.00658 63.5536 -1.44063 63.3826 -1.84515C63.2122 -2.24971 62.9616 -2.61666 62.6465 -2.92478C62.3315 -3.2329 61.9578 -3.47606 61.547 -3.64017C61.1362 -3.80424 60.6966 -3.88603 60.2535 -3.88071C56.2896 -3.85896 52.4209 -2.67573 49.1356 -0.480446C45.8503 1.71488 43.2957 4.82399 41.7939 8.4546C40.2922 12.0852 39.9108 16.0747 40.6976 19.9197C41.4844 23.7647 43.4044 27.2925 46.2152 30.0591C49.0259 32.8251 52.6017 34.7056 56.4914 35.463C60.3805 36.2201 64.4099 35.8203 68.0699 34.314C71.73 32.8077 74.8576 30.2626 77.0577 26.9991C79.2577 23.7357 80.4315 19.9003 80.4315 15.9775C80.4315 15.8808 80.4251 15.79 80.4173 15.6971C80.4251 15.6043 80.4315 15.5115 80.4315 15.4168C80.4183 14.7714 80.5355 14.13 80.7763 13.5296C81.0167 12.9297 81.3762 12.3829 81.8324 11.9222C82.2891 11.4611 82.8343 11.0947 83.4356 10.8447C84.0368 10.5948 84.6831 10.466 85.3352 10.466C85.9873 10.466 86.6335 10.5948 87.2348 10.8447C87.8361 11.0947 88.3813 11.4611 88.838 11.9222C89.2942 12.3829 89.6537 12.9297 89.894 13.5296C90.1348 14.13 90.2521 14.7714 90.2389 15.4168C90.2477 23.2972 87.0956 30.8586 81.4749 36.4405C78.7497 39.2114 75.4912 41.4133 71.8917 42.9171C68.2922 44.421 64.4245 45.1954 60.5173 45.1954C56.6106 45.1954 52.743 44.421 49.1435 42.9171C45.544 41.4133 42.2855 39.2114 39.5602 36.4405C33.947 30.8538 30.7963 23.2953 30.7963 15.4168C30.7963 7.53826 33.947 -0.0200996 39.5602 -5.60695C42.2876 -8.37424 45.5463 -10.5742 49.1448 -12.0776C52.7434 -13.5811 56.6091 -14.3577 60.5153 -14.3619C60.8158 -14.3627 61.1147 -14.4036 61.4044 -14.4837C64.2541 -14.9162 66.8414 -16.3747 68.6712 -18.5793C70.501 -20.7839 71.4438 -23.5795 71.3187 -26.4297C71.1937 -29.28 70.0091 -31.9841 67.9932 -34.0235C65.9774 -36.0628 63.2718 -37.2938 60.3952 -37.4802C60.275 -37.4931 60.1539 -37.4997 60.0327 -37.5C59.9653 -37.5 59.8984 -37.5 59.831 -37.5C59.7978 -37.5 59.7656 -37.5 59.7333 -37.5C59.7011 -37.5 59.6679 -37.4961 59.6356 -37.4952C52.677 -37.441 45.798 -36.0242 39.3952 -33.3265C32.9924 -30.6288 27.1927 -26.7034 22.3302 -21.7768C12.2761 -11.7617 6.6333 1.78251 6.6333 15.9002C6.6333 30.0175 12.2761 43.5615 22.3302 53.5767C27.2376 58.5533 33.1015 62.5085 39.5765 65.2083C46.0517 67.9086 53.0072 69.2999 60.0337 69.2999C67.0603 69.2999 91.2607 72.0002 97.7363 69.2999C104.211 66.6001 92.8287 58.5557 97.7363 53.5791Z" fill="#A1BDD9" fill-opacity="0.0784314"/>
</svg>
