<svg width="78" height="82" viewBox="0 0 78 82" fill="none" xmlns="http://www.w3.org/2000/svg">
<mask id="path-1-inside-1_880_329" fill="white">
<path d="M24.2195 24.5852L39.8642 35.7612L33.1594 37.9961L57.7442 53.6387L57.7442 75.9879L4.10543 37.9961L24.2195 24.5852Z"/>
</mask>
<path d="M24.2195 24.5852L35.6875 8.5317L24.606 0.615489L13.275 8.1703L24.2195 24.5852ZM57.7442 53.6387L77.4732 53.6387L77.4732 42.8077L68.3351 36.9934L57.7442 53.6387ZM57.7442 75.9879L46.341 92.0875L77.4732 114.138L77.4731 75.9879L57.7442 75.9879ZM4.10543 37.9961L-6.83905 21.5811L-30.7218 37.5047L-7.2978 54.0957L4.10543 37.9961ZM39.8642 35.7612L46.103 54.4777L82.8557 42.2268L51.3322 19.7076L39.8642 35.7612ZM33.1594 37.9961L26.9206 19.2796L-12.4056 32.3883L22.5685 54.6413L33.1594 37.9961ZM38.0152 53.6387L38.0152 75.9879L77.4731 75.9879L77.4732 53.6387L38.0152 53.6387ZM69.1474 59.8883L15.5087 21.8964L-7.2978 54.0957L46.341 92.0875L69.1474 59.8883ZM15.0499 54.411L35.164 41.0002L13.275 8.1703L-6.83905 21.5811L15.0499 54.411ZM12.7515 40.6388L28.3961 51.8147L51.3322 19.7076L35.6875 8.5317L12.7515 40.6388ZM33.6253 17.0446L26.9206 19.2796L39.3982 56.7126L46.103 54.4777L33.6253 17.0446ZM22.5685 54.6413L47.1533 70.2839L68.3351 36.9934L43.7503 21.3508L22.5685 54.6413Z" fill="#A1BDD9" fill-opacity="0.0784314" mask="url(#path-1-inside-1_880_329)"/>
<mask id="path-3-inside-2_880_329" fill="white">
<path d="M99.3458 26.6202L83.7011 37.7962L90.4059 40.0311L65.8211 55.6737L65.8211 78.0229L119.46 40.0311L99.3458 26.6202Z"/>
</mask>
<path d="M99.3458 26.6202L87.8778 10.5667L98.9593 2.65049L110.29 10.2053L99.3458 26.6202ZM65.8211 55.6737L46.0922 55.6737L46.0922 44.8427L55.2302 39.0285L65.8211 55.6737ZM65.8211 78.0229L77.2244 94.1225L46.0922 116.173L46.0922 78.0229L65.8211 78.0229ZM119.46 40.0311L130.404 23.6162L154.287 39.5397L130.863 56.1307L119.46 40.0311ZM83.7011 37.7962L77.4623 56.5127L40.7096 44.2618L72.2331 21.7426L83.7011 37.7962ZM90.4059 40.0311L96.6447 21.3146L135.971 34.4233L100.997 56.6763L90.4059 40.0311ZM85.5501 55.6737L85.5501 78.0229L46.0922 78.0229L46.0922 55.6737L85.5501 55.6737ZM54.4179 61.9233L108.057 23.9314L130.863 56.1307L77.2244 94.1225L54.4179 61.9233ZM108.515 56.446L88.4013 43.0352L110.29 10.2053L130.404 23.6162L108.515 56.446ZM110.814 42.6738L95.1692 53.8497L72.2331 21.7426L87.8778 10.5667L110.814 42.6738ZM89.94 19.0796L96.6447 21.3146L84.1671 58.7476L77.4623 56.5127L89.94 19.0796ZM100.997 56.6763L76.412 72.3189L55.2302 39.0285L79.815 23.3858L100.997 56.6763Z" fill="#A1BDD9" fill-opacity="0.0784314" mask="url(#path-3-inside-2_880_329)"/>
<path d="M23.6118 4.12388L61.8018 -23.6013L100.623 4.12199L61.7991 29.5629L23.6118 4.12388Z" stroke="#A1BDD9" stroke-opacity="0.0784314" stroke-width="19.729"/>
</svg>
