<svg width="32" height="32" viewBox="0 0 32 32" fill="none" xmlns="http://www.w3.org/2000/svg">
<rect width="32" height="32" rx="3.2" fill="#0C66E4"/>
<path d="M22.9508 22.9214C24.8306 21.0539 25.8845 18.5243 25.8809 15.8884C25.8788 15.7257 25.8122 15.5703 25.6952 15.456C25.5782 15.3415 25.4205 15.2775 25.2561 15.2775C25.0916 15.2775 24.9339 15.3415 24.8169 15.456C24.6999 15.5703 24.6332 15.7257 24.6312 15.8884C24.6339 18.1984 23.7099 20.4151 22.0622 22.0515C21.2624 22.8641 20.3062 23.51 19.25 23.9511C18.1938 24.3921 17.0591 24.6193 15.9128 24.6193C14.7664 24.6193 13.6317 24.3921 12.5756 23.9511C11.5194 23.51 10.5632 22.8641 9.76333 22.0515C8.11791 20.4135 7.19435 18.1977 7.19435 15.888C7.19435 13.5783 8.11791 11.3625 9.76333 9.72449C10.5585 8.91808 11.5076 8.27591 12.5554 7.83521C13.6033 7.39452 14.7291 7.16406 15.8676 7.1572C16.1107 7.16473 16.3412 7.26597 16.51 7.4393C16.6788 7.61263 16.7724 7.84435 16.771 8.08505C16.7696 8.32574 16.6732 8.55636 16.5024 8.72775C16.3317 8.89912 16.1 8.99769 15.8568 9.00242C15.8343 9.00247 15.8118 9.0037 15.7894 9.00612C14.0572 9.06133 12.4137 9.77709 11.2024 11.0038C9.92323 12.2781 9.2053 14.0015 9.2053 15.7978C9.2053 17.5941 9.92323 19.3174 11.2024 20.5918C11.8274 21.2253 12.574 21.7288 13.3984 22.0725C14.2229 22.4162 15.1085 22.5932 16.0031 22.5932C16.8976 22.5932 17.7832 22.4162 18.6077 22.0725C19.4321 21.7288 20.1787 21.2253 20.8037 20.5918C22.0848 19.3188 22.8031 17.5945 22.8005 15.7978C22.8032 15.5148 22.7491 15.234 22.6415 14.9718C22.5338 14.7096 22.3748 14.4711 22.1735 14.27C21.9721 14.069 21.7326 13.9094 21.4687 13.8005C21.2047 13.6916 20.9216 13.6355 20.6355 13.6355C20.3495 13.6355 20.0664 13.6916 19.8024 13.8005C19.5385 13.9094 19.2989 14.069 19.0976 14.27C18.8963 14.4711 18.7373 14.7096 18.6296 14.9718C18.522 15.234 18.4679 15.5148 18.4706 15.7978C18.4706 15.8158 18.4717 15.8328 18.4732 15.8501C18.4717 15.8674 18.4706 15.8848 18.4706 15.9025C18.4747 16.3959 18.3305 16.8793 18.0564 17.2916C17.7824 17.7038 17.3908 18.0261 16.9314 18.2178C16.4719 18.4094 15.9652 18.4616 15.4758 18.3679C14.9862 18.274 14.5359 18.0385 14.1819 17.691C13.8279 17.3435 13.5862 16.8998 13.4874 16.4162C13.3886 15.9325 13.4372 15.4307 13.6271 14.9745C13.8169 14.5182 14.1395 14.128 14.5538 13.8534C14.968 13.5789 15.4554 13.4323 15.954 13.4323C16.0367 13.4333 16.1188 13.418 16.1954 13.3874C16.2721 13.3567 16.3419 13.3113 16.4007 13.2538C16.4595 13.1963 16.5063 13.1278 16.5381 13.0523C16.57 12.9768 16.5864 12.8958 16.5864 12.8139C16.5864 12.7321 16.57 12.6511 16.5381 12.5756C16.5063 12.5 16.4595 12.4315 16.4007 12.374C16.3419 12.3165 16.2721 12.2711 16.1954 12.2405C16.1188 12.2099 16.0367 12.1946 15.954 12.1956C15.2141 12.1996 14.4919 12.4205 13.8786 12.8303C13.2654 13.2401 12.7885 13.8205 12.5082 14.4982C12.2279 15.1759 12.1567 15.9206 12.3035 16.6383C12.4504 17.3561 12.8088 18.0146 13.3335 18.531C13.8582 19.0473 14.5257 19.3984 15.2517 19.5398C15.9777 19.6811 16.7298 19.6064 17.4131 19.3253C18.0963 19.0441 18.6801 18.569 19.0908 17.9598C19.5014 17.3506 19.7205 16.6347 19.7205 15.9025C19.7205 15.8844 19.7194 15.8674 19.7179 15.8501C19.7194 15.8328 19.7205 15.8155 19.7205 15.7978C19.7181 15.6773 19.74 15.5576 19.7849 15.4455C19.8298 15.3335 19.8969 15.2315 19.9821 15.1455C20.0673 15.0594 20.1691 14.991 20.2813 14.9443C20.3935 14.8977 20.5142 14.8736 20.6359 14.8736C20.7576 14.8736 20.8783 14.8977 20.9905 14.9443C21.1027 14.991 21.2045 15.0594 21.2898 15.1455C21.3749 15.2315 21.442 15.3335 21.4869 15.4455C21.5318 15.5576 21.5537 15.6773 21.5513 15.7978C21.5529 17.2688 20.9645 18.6803 19.9153 19.7222C19.4066 20.2394 18.7984 20.6505 18.1264 20.9312C17.4545 21.2119 16.7326 21.3565 16.0032 21.3565C15.274 21.3565 14.552 21.2119 13.8801 20.9312C13.2082 20.6505 12.6 20.2394 12.0912 19.7222C11.0435 18.6794 10.4553 17.2684 10.4553 15.7978C10.4553 14.3271 11.0435 12.9162 12.0912 11.8734C12.6004 11.3568 13.2086 10.9461 13.8804 10.6655C14.5521 10.3848 15.2737 10.2399 16.0029 10.2391C16.0589 10.2389 16.1147 10.2313 16.1688 10.2164C16.7008 10.1356 17.1837 9.86338 17.5253 9.45185C17.8669 9.04031 18.0428 8.51847 18.0195 7.98644C17.9962 7.45439 17.775 6.94961 17.3987 6.56894C17.0224 6.18826 16.5174 5.95848 15.9804 5.92368C15.958 5.92126 15.9354 5.92003 15.9128 5.91998C15.9002 5.91998 15.8877 5.91998 15.8751 5.91998C15.8689 5.91998 15.8629 5.91998 15.8569 5.91998C15.8509 5.91998 15.8447 5.9207 15.8387 5.92088C14.5397 5.93099 13.2556 6.19546 12.0604 6.69904C10.8653 7.20262 9.78263 7.93535 8.87496 8.85498C6.99821 10.7245 5.94489 13.2527 5.94489 15.888C5.94489 18.5232 6.99821 21.0515 8.87496 22.921C9.79102 23.8499 10.8856 24.5882 12.0943 25.0922C13.303 25.5963 14.6013 25.856 15.913 25.856C17.2246 25.856 21.742 26.36 22.9508 25.856C24.1595 25.352 22.0347 23.8504 22.9508 22.9214Z" fill="white"/>
</svg>
