<svg width="32" height="32" viewBox="0 0 32 32" fill="none" xmlns="http://www.w3.org/2000/svg">
<rect width="32" height="32" rx="3.2" fill="#0C66E4"/>
<mask id="path-2-inside-1_1076_12145" fill="white">
<path d="M9.22762 16.5759L12.148 18.6621L10.8964 19.0793L15.4856 21.9992L15.4856 26.1711L5.473 19.0793L9.22762 16.5759Z"/>
</mask>
<path d="M9.22762 16.5759L11.3683 13.5792L9.29977 12.1015L7.18465 13.5118L9.22762 16.5759ZM15.4856 21.9992L19.1683 21.9992L19.1683 19.9774L17.4625 18.8921L15.4856 21.9992ZM15.4856 26.1711L13.357 29.1763L19.1683 33.2924L19.1683 26.1711L15.4856 26.1711ZM5.473 19.0793L3.43003 16.0151L-1.02809 18.9875L3.34439 22.0845L5.473 19.0793ZM12.148 18.6621L13.3125 22.1558L20.173 19.869L14.2887 15.6654L12.148 18.6621ZM10.8964 19.0793L9.73182 15.5855L2.39093 18.0325L8.91943 22.1864L10.8964 19.0793ZM11.8028 21.9992L11.8028 26.1711L19.1683 26.1711L19.1683 21.9992L11.8028 21.9992ZM17.6142 23.1658L7.6016 16.074L3.34439 22.0845L13.357 29.1763L17.6142 23.1658ZM7.51597 22.1434L11.2706 19.64L7.18465 13.5118L3.43003 16.0151L7.51597 22.1434ZM7.08693 19.5726L10.0073 21.6587L14.2887 15.6654L11.3683 13.5792L7.08693 19.5726ZM10.9834 15.1683L9.73182 15.5855L12.061 22.573L13.3125 22.1558L10.9834 15.1683ZM8.91943 22.1864L13.5086 25.1063L17.4625 18.8921L12.8734 15.9721L8.91943 22.1864Z" fill="white" mask="url(#path-2-inside-1_1076_12145)"/>
<mask id="path-4-inside-2_1076_12145" fill="white">
<path d="M23.2512 16.9558L20.3309 19.042L21.5824 19.4591L16.9933 22.3791L16.9933 26.5509L27.0058 19.4591L23.2512 16.9558Z"/>
</mask>
<path d="M23.2512 16.9558L21.1105 13.9591L23.179 12.4814L25.2942 13.8917L23.2512 16.9558ZM16.9933 22.3791L13.3105 22.3791L13.3105 20.3573L15.0163 19.272L16.9933 22.3791ZM16.9933 26.5509L19.1219 29.5562L13.3105 33.6723L13.3105 26.5509L16.9933 26.5509ZM27.0058 19.4591L29.0488 16.395L33.5069 19.3674L29.1344 22.4644L27.0058 19.4591ZM20.3309 19.042L19.1663 22.5357L12.3058 20.2489L18.1902 16.0453L20.3309 19.042ZM21.5824 19.4591L22.747 15.9654L30.0879 18.4123L23.5594 22.5662L21.5824 19.4591ZM20.676 22.3791L20.676 26.5509L13.3105 26.5509L13.3105 22.3791L20.676 22.3791ZM14.8647 23.5457L24.8772 16.4539L29.1344 22.4644L19.1219 29.5562L14.8647 23.5457ZM24.9629 22.5233L21.2082 20.0199L25.2942 13.8917L29.0488 16.395L24.9629 22.5233ZM25.3919 19.9524L22.4716 22.0386L18.1902 16.0453L21.1105 13.9591L25.3919 19.9524ZM21.4954 15.5482L22.747 15.9654L20.4178 22.9529L19.1663 22.5357L21.4954 15.5482ZM23.5594 22.5662L18.9702 25.4862L15.0163 19.272L19.6054 16.352L23.5594 22.5662Z" fill="white" mask="url(#path-4-inside-2_1076_12145)"/>
<path d="M9.11417 12.7564L16.243 7.58106L23.4897 12.7561L16.2425 17.505L9.11417 12.7564Z" stroke="white" stroke-width="3.68274"/>
</svg>
