<svg width="32" height="32" viewBox="0 0 32 32" fill="none" xmlns="http://www.w3.org/2000/svg">
<rect width="32" height="32" rx="3.2" fill="#0C66E4"/>
<path d="M22.3151 16.6127C22.0057 19.8291 19.2975 22.3434 16 22.3434C12.7025 22.3434 9.99426 19.8291 9.68489 16.6127H4.81842C5.13761 22.5128 10.0213 27.2001 16 27.2001C21.9787 27.2001 26.8624 22.5128 27.1816 16.6127H22.3151Z" fill="white"/>
<path d="M22.3151 16.6127C22.0058 19.8291 19.2975 22.3434 16 22.3434C12.7025 22.3434 9.99428 19.8291 9.6849 16.6127H9.67999C9.99428 21.1722 13.7902 24.7717 18.4283 24.7717C23.0665 24.7717 26.8624 21.1722 27.1767 16.6127H22.3151Z" fill="white"/>
<path d="M9.68489 15.3849C9.99426 12.1684 12.7025 9.65418 16 9.65418C19.2975 9.65418 22.0057 12.1684 22.3151 15.3849H27.1816C26.8649 9.48722 21.9812 4.79999 16 4.79999C10.0213 4.79999 5.13761 9.48722 4.81842 15.3849H9.68489Z" fill="white"/>
<path d="M9.68485 15.3849C9.99422 12.1684 12.7025 9.65416 16 9.65416C19.2975 9.65416 22.0057 12.1684 22.3151 15.3849H22.3224C22.0082 10.8278 18.2122 7.22829 13.5741 7.22829C8.93597 7.22829 5.14003 10.8278 4.82574 15.3849H9.68485Z" fill="white"/>
</svg>
